<?xml version="1.0" encoding="utf-8"?>
<!-- Generator: Adobe Illustrator 19.0.0, SVG Export Plug-In . SVG Version: 6.00 Build 0)  -->
<svg version="1.1" xmlns="http://www.w3.org/2000/svg" xmlns:xlink="http://www.w3.org/1999/xlink" x="0px" y="0px"
	 viewBox="0 0 864.9 508.8" style="enable-background:new 0 0 864.9 508.8;" xml:space="preserve">
<style type="text/css">
	.st0{fill-rule:evenodd;clip-rule:evenodd;}
	.st1{fill:#FF0000;}
</style>
<g id="message">
	<path d="M448.6,127.8c-1.4,0-3.2-0.2-5.2-0.6c0.2-0.2,0.2-0.2,0.2-0.2c3.8-3.9,6.4-5.1,8.3-5.1c1.7,0,3.3,1,3.3,2.3
		C455.3,126.6,452.4,127.8,448.6,127.8z M418.4,158c7.4-7.4,17.1-21.7,23.4-28.9c2.4,0.5,4.6,0.9,6.6,0.9c5.4,0,8-2.2,8-5.4
		c0-2.2-2-3.6-4.5-3.6c-3.3,0-7.4,1.7-11.9,5.6c-7.7-1.8-17.3-4.6-23-4.6c-9.8,0-17,7.4-17,14.2c0,3.1,2.2,8.3,8.6,8.3
		c7.4,0,15.2-10.4,15.2-17.8c0-0.2-0.1-0.4-0.2-0.4c-0.1,0-0.3,0.1-0.4,0.3c-1.5,5.4-8.9,15.9-16.5,15.9c-4.4,0-5.6-4-5.6-6.2
		c0-6,6.4-12.9,14.9-12.9c7.1,0,15.1,2.9,22.2,4.8c-0.4,0.4-1,1-1.4,1.4c-6.8,6.8-15.6,19.5-21.8,25.7c-7.6,7.7-14.4,10.8-20.5,10.8
		c-7.3,0-9.4-4.6-9.4-8c0-4.8,4.8-9.4,9.3-9.4c3.9,0,7,2.7,7,6.4c0,1.9-0.9,3.5-2,4.6c-0.5,0.5-1.3,0.9-1.3,1.2
		c0,0.2,0.1,0.3,0.4,0.3c0.7,0,1.8-0.5,3.1-1.9c1-1,2-2.8,2-4.8c0-4.1-3.2-7.1-8-7.1c-6.8,0-11.8,5.6-11.8,11c0,3.6,2.8,10,12.1,10
		C404.2,168.3,412.1,164.2,418.4,158z"/>
	<path d="M447.6,165.4c3.8,0,14.2-10.1,14.2-11.6c0-0.1-0.1-0.3-0.2-0.4c-2.8,3.5-10.6,10.8-14.1,10.8c-0.1-2.9,9.9-11.5,9.9-16.2
		c0-1.9-1.3-3-2.7-3c-2.5,0-7.3,3.5-12.8,9.1c-0.6,0.6-1.2,1.2-1.8,1.9l-0.1-0.3c3.5-5.4,11.8-15.8,19.4-25.4
		c1.1-1.4,3.6-5.3,3.6-6.6c0-0.9-0.5-2.2-2.2-2.8c0,0.7-1.3,3.7-6.6,10.3c-17.5,22.1-23.1,30.3-23.1,31.5c0,1.3,1.3,2.7,2.3,2.7
		c3-3.9,6.3-7.6,8.9-10.3c6.2-6.4,10.6-9.2,12.3-9.2c0.3,0,0.8,0.1,0.8,0.1c0.7,2.4-10.7,10.9-10.7,15.6c0,1.1,0.3,2.2,1.1,3
		C446.5,165.2,447.1,165.4,447.6,165.4z"/>
	<path d="M465,154.9h-0.6c3.4-4.4,8-8.3,10.5-8.6c0.1,0.1,0.2,0.4,0.2,1.1c0,0.7-1,2.1-2.5,3.6C470.6,153.1,466.9,154.9,465,154.9z
		 M475,157.9c2-2,3.3-3.6,3.3-4.2c0-0.1-0.1-0.3-0.2-0.4c-0.7,0.9-1.6,1.9-2.8,3.1c-4.2,4.2-10.7,7.7-14.1,7.7
		c-0.9,0-1.3-0.2-1.4-0.4c0.1-2.2,1.8-5.1,3.9-8c0.3,0.1,0.7,0.1,1.2,0.1c2.5,0,6.3-1.9,8.7-4.2c1.3-1.3,2.6-2.8,2.6-4.1
		c0-1.6-0.9-2.2-3-2.9c-6.3,0.1-15.7,10.3-15.7,16.5c0,3.3,1.3,4.4,3.8,4.4C464.3,165.4,470.8,162.1,475,157.9z"/>
	<path d="M125.5,5.6v-5h-20.5v5h7.4v21h5.8v-21H125.5z"/>
	<path d="M151.9,2.6c-1.7-1.4-4.6-2-8.6-2h-9.9v26h5.8v-8.3h4l5.8,8.3h7.1l-6.6-9.3c3.3-1.2,4.9-3.9,4.9-8.1
		C154.5,6.2,153.7,4,151.9,2.6z M143.5,13.3h-4.2V5.6h4.4c1.9,0,3.2,0.3,3.9,0.8c0.7,0.5,1.1,1.5,1.1,2.9c0,1.4-0.4,2.4-1.1,3.1
		C146.8,13,145.5,13.3,143.5,13.3L143.5,13.3z"/>
	<path d="M174.7,16.3l9-15.7h-6.3l-5.6,9.7l-5.6-9.7h-6.3l9,15.7v10.3h5.8V16.3z"/>
	<path d="M190.2,26.6h5.8v-26h-5.8V26.6z"/>
	<path d="M224.3,17.3L211.6,0.6h-5.4v26h5.8V10.3l12.4,16.3h5.8v-26h-5.8V17.3z"/>
	<path d="M257.1,20.5c-1.3,0.8-3,1.2-5,1.2c-2,0-3.7-0.7-5.2-2.2c-1.5-1.5-2.2-3.4-2.2-5.9c0-2.5,0.8-4.4,2.3-5.9
		c1.5-1.5,3.4-2.2,5.6-2.2c1.1,0,2.2,0.2,3.2,0.6c1,0.4,2.1,1.1,3.2,2.1l3-4.3c-2.8-2.5-6-3.7-9.7-3.7c-3.7,0-6.9,1.3-9.6,3.9
		c-2.6,2.6-4,5.8-4,9.6c0,3.9,1.3,7,3.9,9.6c2.6,2.5,5.8,3.8,9.6,3.8c4.6,0,8.1-1.4,10.7-4.3v-9.2h-5.8V20.5z"/>
	<path d="M303.8,5.6v-5h-20.5v5h7.4v21h5.8v-21H303.8z"/>
	<path d="M327.2,19.4c-1.5,1.6-3.3,2.4-5.5,2.4c-2.2,0-4-0.8-5.5-2.4c-1.5-1.6-2.2-3.6-2.2-5.9c0-2.3,0.7-4.3,2.2-5.9
		c1.5-1.6,3.3-2.5,5.5-2.5c2.2,0,4,0.8,5.5,2.5c1.5,1.6,2.2,3.6,2.2,5.9C329.4,15.8,328.7,17.7,327.2,19.4z M335.3,13.4
		c0-3.8-1.3-7-3.9-9.6c-2.6-2.6-5.9-3.8-9.7-3.8c-3.8,0-7.1,1.3-9.7,3.8c-2.6,2.6-3.9,5.8-3.9,9.6c0,3.8,1.3,7,3.9,9.6
		c2.6,2.6,5.9,3.8,9.7,3.8c3.8,0,7.1-1.3,9.7-3.8C334,20.4,335.3,17.2,335.3,13.4z"/>
	<path d="M375.2,19.4c-1.5,1.6-3.3,2.4-5.5,2.4c-2.2,0-4-0.8-5.5-2.4c-1.5-1.6-2.2-3.6-2.2-5.9c0-2.3,0.7-4.3,2.2-5.9
		c1.5-1.6,3.3-2.5,5.5-2.5c2.2,0,4,0.8,5.5,2.5c1.5,1.6,2.2,3.6,2.2,5.9C377.4,15.8,376.7,17.7,375.2,19.4z M383.3,13.4
		c0-3.8-1.3-7-3.9-9.6c-2.6-2.6-5.9-3.8-9.7-3.8c-3.8,0-7.1,1.3-9.7,3.8c-2.6,2.6-3.9,5.8-3.9,9.6c0,3.8,1.3,7,3.9,9.6
		c2.6,2.6,5.9,3.8,9.7,3.8c3.8,0,7.1-1.3,9.7-3.8C382,20.4,383.3,17.2,383.3,13.4z"/>
	<path d="M400.4,0.6h-9.2v26h5.8v-7.2h3.5c3.8,0,6.7-0.7,8.6-2.2c1.9-1.5,2.8-3.8,2.8-7c0-3.2-0.9-5.6-2.7-7.1
		C407.3,1.4,404.4,0.6,400.4,0.6L400.4,0.6z M400.9,14.3H397V5.6h3.3c1.9,0,3.3,0.3,4.2,0.9c0.9,0.6,1.4,1.7,1.4,3.2
		c0,1.5-0.3,2.6-1,3.4C404.2,13.9,402.9,14.3,400.9,14.3L400.9,14.3z"/>
	<path d="M420.1,0.6v26h19.2v-5.1h-13.4v-5.4h11.6v-4.9h-11.6V5.8h12.9V0.6H420.1z"/>
	<path d="M466.3,17.3L453.6,0.6h-5.4v26h5.8V10.3l12.4,16.3h5.8v-26h-5.8V17.3z"/>
	<path d="M512.7,20.5c-1.3,0.8-3,1.2-5,1.2c-2,0-3.7-0.7-5.2-2.2c-1.5-1.5-2.2-3.4-2.2-5.9c0-2.5,0.8-4.4,2.3-5.9
		c1.5-1.5,3.4-2.2,5.6-2.2c1.1,0,2.2,0.2,3.2,0.6c1,0.4,2.1,1.1,3.2,2.1l3-4.3c-2.8-2.5-6-3.7-9.7-3.7c-3.7,0-6.9,1.3-9.6,3.9
		c-2.6,2.6-4,5.8-4,9.6c0,3.9,1.3,7,3.9,9.6c2.6,2.5,5.8,3.8,9.6,3.8c4.6,0,8.1-1.4,10.7-4.3v-9.2h-5.8V20.5z"/>
	<path d="M527.4,26.6h5.8v-26h-5.8V26.6z"/>
	<path d="M543.3,0.6v26h5.8V16.4h11.5v-5.1h-11.5V5.7h12.1V0.6H543.3z"/>
	<path d="M578,5.1c2.4,0,4.7,0.9,7,2.6l2.9-4.2c-1.3-1.1-2.8-1.9-4.5-2.5c-1.7-0.6-3.5-0.9-5.2-0.9c-2.7,0-4.9,0.7-6.6,2
		c-1.8,1.3-2.7,3.2-2.7,5.7c0,2.5,0.7,4.3,2.1,5.4c1.4,1.2,3.6,2.1,6.6,2.8c1.9,0.5,3.2,0.9,3.8,1.4c0.6,0.5,1,1.1,1,1.9
		c0,0.8-0.3,1.4-0.9,1.9c-0.6,0.5-1.4,0.7-2.5,0.7c-2.4,0-5-1.2-7.8-3.7l-3.5,4.2c3.3,3,7,4.6,11.1,4.6c2.9,0,5.2-0.7,6.9-2.2
		c1.7-1.4,2.6-3.3,2.6-5.7c0-2.3-0.7-4.1-2-5.3c-1.4-1.2-3.3-2.1-5.7-2.7c-2.5-0.6-4-1.1-4.7-1.6c-0.7-0.4-1-1-1-1.8
		c0-0.8,0.3-1.4,0.8-1.8C576.3,5.3,577,5.1,578,5.1L578,5.1z"/>
	<path d="M610.6,0.6v26h19.2v-5.1h-13.4v-5.4h11.6v-4.9h-11.6V5.8h12.9V0.6H610.6z"/>
	<path d="M663.4,26.6l-11.2-26h-5.6l-11.2,26h6.2l2.4-5.6h10.9l2.4,5.6H663.4z M652.6,15.9h-6.5l3.3-7.5L652.6,15.9z"/>
	<path d="M688.6,2.6c-1.7-1.4-4.6-2-8.6-2h-9.9v26h5.8v-8.3h4l5.8,8.3h7.1l-6.6-9.3c3.3-1.2,4.9-3.9,4.9-8.1
		C691.2,6.2,690.3,4,688.6,2.6z M680.1,13.3h-4.2V5.6h4.4c1.9,0,3.2,0.3,3.9,0.8s1.1,1.5,1.1,2.9c0,1.4-0.4,2.4-1.1,3.1
		C683.5,13,682.1,13.3,680.1,13.3L680.1,13.3z"/>
	<path d="M717.7,26.6v-5.2h-11.1V0.6h-5.8v26H717.7z"/>
	<path d="M734.6,16.3l9-15.7h-6.3l-5.6,9.7l-5.6-9.7h-6.3l9,15.7v10.3h5.8V16.3z"/>
	<path d="M153.4,83h5.8V57h-5.8V83z"/>
	<path d="M176.2,61.5c2.4,0,4.7,0.9,7,2.6l2.9-4.2c-1.3-1.1-2.8-1.9-4.5-2.5c-1.7-0.6-3.5-0.9-5.2-0.9c-2.7,0-4.9,0.7-6.6,2
		c-1.8,1.3-2.7,3.2-2.7,5.7c0,2.5,0.7,4.3,2.1,5.4c1.4,1.2,3.6,2.1,6.6,2.8c1.9,0.5,3.2,0.9,3.8,1.4c0.6,0.5,1,1.1,1,1.9
		s-0.3,1.4-0.9,1.9c-0.6,0.5-1.4,0.7-2.5,0.7c-2.4,0-5-1.2-7.8-3.7l-3.5,4.2c3.3,3,7,4.6,11.1,4.6c2.9,0,5.2-0.7,6.9-2.2
		c1.7-1.4,2.6-3.3,2.6-5.7c0-2.3-0.7-4.1-2-5.3c-1.4-1.2-3.3-2.1-5.7-2.7c-2.5-0.6-4-1.1-4.7-1.6c-0.7-0.4-1-1-1-1.8
		c0-0.8,0.3-1.4,0.8-1.8C174.5,61.7,175.2,61.5,176.2,61.5L176.2,61.5z"/>
	<path d="M233.5,83l-11.2-26h-5.6l-11.2,26h6.2l2.4-5.6h10.9l2.4,5.6H233.5z M222.7,72.3h-6.5l3.3-7.5L222.7,72.3z"/>
	<path d="M271.4,75.8c-1.5,1.6-3.3,2.4-5.5,2.4c-2.2,0-4-0.8-5.5-2.4c-1.5-1.6-2.2-3.6-2.2-5.9c0-2.3,0.7-4.3,2.2-5.9
		c1.5-1.6,3.3-2.5,5.5-2.5c2.2,0,4,0.8,5.5,2.5c1.5,1.6,2.2,3.6,2.2,5.9C273.7,72.2,272.9,74.1,271.4,75.8z M279.6,69.8
		c0-3.8-1.3-7-3.9-9.6c-2.6-2.6-5.9-3.8-9.7-3.8c-3.8,0-7.1,1.3-9.7,3.8c-2.6,2.6-3.9,5.8-3.9,9.6c0,3.8,1.3,7,3.9,9.6
		c2.6,2.6,5.9,3.8,9.7,3.8c3.8,0,7.1-1.3,9.7-3.8C278.3,76.8,279.6,73.6,279.6,69.8z"/>
	<path d="M306.4,73.7L293.7,57h-5.4v26h5.8V66.7L306.4,83h5.8V57h-5.8V73.7z"/>
	<path d="M322.3,57v26h19.2v-5.1h-13.4v-5.4h11.6v-4.9h-11.6v-5.4h12.9V57H322.3z"/>
	<path d="M366.9,57h-6.3l9.1,26h4.3l5.7-18.1l5.7,18.1h4.3l9.1-26h-6.3L387.3,72L382.7,57h-6.1L372,72L366.9,57z"/>
	<path d="M428.8,83l-11.2-26H412l-11.2,26h6.2l2.4-5.6h10.9l2.4,5.6H428.8z M418.1,72.3h-6.5l3.3-7.5L418.1,72.3z"/>
	<path d="M445,72.7l9-15.7h-6.3l-5.6,9.7l-5.6-9.7h-6.3l9,15.7V83h5.8V72.7z"/>
	<path d="M492.4,62v-5h-20.5v5h7.4v21h5.8V62H492.4z"/>
	<path d="M500.3,83h5.8V57h-5.8V83z"/>
	<path d="M522.9,75.7c-1.5-1.5-2.2-3.4-2.2-5.8c0-2.4,0.8-4.3,2.3-5.8c1.5-1.4,3.4-2.1,5.6-2.1c2.7,0,5,1.1,6.8,3.4l3.6-4.1
		c-2.9-3.2-6.4-4.9-10.7-4.9c-3.8,0-7,1.3-9.7,3.9c-2.6,2.6-4,5.8-4,9.6c0,3.9,1.3,7,3.9,9.6c2.6,2.5,5.9,3.8,9.9,3.8
		c4,0,7.5-1.7,10.4-5l-3.7-3.8c-1.8,2.3-4.1,3.4-7,3.4C526.1,77.9,524.3,77.1,522.9,75.7z"/>
	<path d="M547.2,83h5.8v-7.4l2.6-2.9l7.6,10.3h6.8c-1.2-1.7-3-4.2-5.4-7.6c-2.4-3.4-4.1-5.7-4.9-6.9L570,57h-7.2L553,67.7V57h-5.8
		V83z"/>
	<path d="M577.3,57v26h19.2v-5.1h-13.4v-5.4h11.6v-4.9h-11.6v-5.4h12.9V57H577.3z"/>
	<path d="M623.7,62v-5h-20.5v5h7.4v21h5.8V62H623.7z"/>
	<path d="M663.6,62v-5h-20.5v5h7.4v21h5.8V62H663.6z"/>
	<path d="M687,75.8c-1.5,1.6-3.3,2.4-5.5,2.4c-2.2,0-4-0.8-5.5-2.4c-1.5-1.6-2.2-3.6-2.2-5.9c0-2.3,0.7-4.3,2.2-5.9
		c1.5-1.6,3.3-2.5,5.5-2.5c2.2,0,4,0.8,5.5,2.5c1.5,1.6,2.2,3.6,2.2,5.9C689.3,72.2,688.5,74.1,687,75.8z M695.2,69.8
		c0-3.8-1.3-7-3.9-9.6c-2.6-2.6-5.9-3.8-9.7-3.8c-3.8,0-7.1,1.3-9.7,3.8c-2.6,2.6-3.9,5.8-3.9,9.6c0,3.8,1.3,7,3.9,9.6
		c2.6,2.6,5.9,3.8,9.7,3.8c3.8,0,7.1-1.3,9.7-3.8C693.9,76.8,695.2,73.6,695.2,69.8z"/>
	<path d="M197.2,449.6c1.2-1.4,1.9-3,1.9-4.8c0-1.6-0.5-3-1.4-4.1c-1-1.1-2.2-1.8-3.8-2.2c0.4-0.2,0.8-0.3,0.9-0.4
		c0.2-0.1,0.5-0.3,0.9-0.7c1.3-1,2-2.5,2-4.5c0-1.7-0.6-3.2-1.7-4.5c-0.6-0.7-1.6-1.3-2.9-1.7c-1.3-0.4-2.8-0.6-4.6-0.6h-10.1v26
		h11.4C193.2,452,195.7,451.2,197.2,449.6L197.2,449.6z M184.1,431h2.8c1.7,0,2.9,0.2,3.6,0.6c0.7,0.4,1.1,1.1,1.1,2.3
		s-0.4,1.9-1.2,2.2c-0.8,0.3-2,0.5-3.6,0.5h-2.8V431z M184.1,441.2h3.4c1.9,0,3.3,0.2,4.2,0.6c0.9,0.4,1.3,1.2,1.3,2.4
		c0,1.2-0.4,2-1.2,2.4c-0.8,0.4-2.1,0.6-3.7,0.6h-4V441.2z"/>
	<path d="M212.3,440.4v-14.4h-5.8v14.5c0,3.7,1,6.6,3.1,8.7c2.1,2,4.8,3,8,3c3.2,0,5.9-1,8-3c2.1-2,3.1-4.9,3.1-8.7v-14.5H223v14.4
		c0,2.1-0.5,3.7-1.4,4.9c-1,1.2-2.3,1.8-3.9,1.8c-1.6,0-2.9-0.6-3.9-1.8C212.8,444.1,212.3,442.5,212.3,440.4L212.3,440.4z"/>
	<path d="M256.9,431.1v-5h-20.5v5h7.4v21h5.8v-21H256.9z"/>
	<path d="M281.4,426.1h-6.3l9.1,26h4.3l5.7-18.1l5.7,18.1h4.3l9.1-26h-6.3l-5.2,14.9l-4.6-14.9h-6.1l-4.6,14.9L281.4,426.1z"/>
	<path d="M320,426.1v26h19.2v-5.1h-13.4v-5.4h11.6v-4.9h-11.6v-5.4h12.9v-5.2H320z"/>
	<path d="M345.9,435.5h3l2.7-3.9c0.5-0.8,0.8-1.7,0.8-2.6c0-0.9-0.3-1.6-0.9-2.1c-0.6-0.5-1.3-0.8-2.2-0.8c-0.9,0-1.6,0.3-2.2,0.9
		c-0.6,0.6-0.9,1.3-0.9,2.3c0,1,0.4,1.7,1.2,2.3L345.9,435.5z"/>
	<path d="M377.6,452v-5.2h-11.1v-20.8h-5.8v26H377.6z"/>
	<path d="M401,452v-5.2h-11.1v-20.8h-5.8v26H401z"/>
	<path d="M439.3,452v-5.2h-11.1v-20.8h-5.8v26H439.3z"/>
	<path d="M447.3,426.1v26h19.2v-5.1h-13.4v-5.4h11.6v-4.9h-11.6v-5.4h12.9v-5.2H447.3z"/>
	<path d="M493.7,431.1v-5h-20.5v5h7.4v21h5.8v-21H493.7z"/>
	<path d="M515.2,452h5.8v-26h-5.8V452z"/>
	<path d="M549.5,431.1v-5H529v5h7.4v21h5.8v-21H549.5z"/>
	<path d="M579.4,430.6c2.4,0,4.7,0.9,7,2.6l2.9-4.2c-1.3-1.1-2.8-1.9-4.5-2.5c-1.7-0.6-3.5-0.9-5.2-0.9c-2.7,0-4.9,0.7-6.6,2
		c-1.8,1.3-2.7,3.2-2.7,5.7c0,2.5,0.7,4.3,2.1,5.4c1.4,1.2,3.6,2.1,6.6,2.8c1.9,0.5,3.2,0.9,3.8,1.4c0.6,0.5,1,1.1,1,1.9
		s-0.3,1.4-0.9,1.9c-0.6,0.5-1.4,0.7-2.5,0.7c-2.4,0-5-1.2-7.8-3.7l-3.5,4.2c3.3,3,7,4.6,11.1,4.6c2.9,0,5.2-0.7,6.9-2.2
		c1.7-1.4,2.6-3.3,2.6-5.7c0-2.3-0.7-4.1-2-5.3c-1.4-1.2-3.3-2.1-5.7-2.7c-2.5-0.6-4-1.1-4.7-1.6c-0.7-0.4-1-1-1-1.8
		c0-0.8,0.3-1.4,0.8-1.8C577.6,430.8,578.4,430.6,579.4,430.6L579.4,430.6z"/>
	<path d="M615.3,452v-5.2h-11.1v-20.8h-5.8v26H615.3z"/>
	<path d="M623.3,452h5.8v-26h-5.8V452z"/>
	<path d="M648.4,426.1h-9.2v26h8.9c5,0,8.6-1.2,11.1-3.5c2.4-2.4,3.6-5.6,3.6-9.6c0-4-1.2-7.2-3.7-9.5
		C656.6,427.2,653,426.1,648.4,426.1L648.4,426.1z M648.7,446.9H645v-15.8h3.2c3,0,5.1,0.7,6.6,2.1c1.4,1.4,2.1,3.3,2.1,5.9
		c0,2.6-0.7,4.5-2.1,5.8C653.4,446.2,651.4,446.9,648.7,446.9L648.7,446.9z"/>
	<path d="M671.5,426.1v26h19.2v-5.1h-13.4v-5.4H689v-4.9h-11.6v-5.4h12.9v-5.2H671.5z"/>
	<path d="M339.6,487.5v-5H319v5h7.4v21h5.8v-21H339.6z"/>
	<path d="M362.9,493.3h-10.3v-10.9h-5.8v26h5.8v-10.2h10.3v10.2h5.8v-26h-5.8V493.3z"/>
	<path d="M378.8,508.5h5.8v-26h-5.8V508.5z"/>
	<path d="M403.1,487c2.4,0,4.7,0.9,7,2.6l2.9-4.2c-1.3-1.1-2.8-1.9-4.5-2.5c-1.7-0.6-3.5-0.9-5.2-0.9c-2.7,0-4.9,0.7-6.6,2
		c-1.8,1.3-2.7,3.2-2.7,5.7c0,2.5,0.7,4.3,2.1,5.4c1.4,1.2,3.6,2.1,6.6,2.8c1.9,0.5,3.2,0.9,3.8,1.4c0.6,0.5,1,1.1,1,1.9
		s-0.3,1.4-0.9,1.9c-0.6,0.5-1.4,0.7-2.5,0.7c-2.4,0-5-1.2-7.8-3.7l-3.5,4.2c3.3,3,7,4.6,11.1,4.6c2.9,0,5.2-0.7,6.9-2.2
		c1.7-1.4,2.6-3.3,2.6-5.7c0-2.3-0.7-4.1-2-5.3c-1.4-1.2-3.3-2.1-5.7-2.7c-2.5-0.6-4-1.1-4.7-1.6c-0.7-0.4-1-1-1-1.8
		c0-0.8,0.3-1.4,0.8-1.8C401.4,487.2,402.2,487,403.1,487L403.1,487z"/>
	<path d="M454.1,487.5v-5h-20.5v5h7.4v21h5.8v-21H454.1z"/>
	<path d="M462.1,508.5h5.8v-26h-5.8V508.5z"/>
	<path d="M501.3,508.5h5.8v-26h-7.8l-6.7,14.3l-6.7-14.3H478v26h5.8v-16.4l7,14.2h3.5l7-14.2V508.5z"/>
	<path d="M515,482.5v26h19.2v-5.1h-13.4v-5.4h11.6V493h-11.6v-5.4h12.9v-5.2H515z"/>
	<path d="M544.4,508.8c0.9,0,1.7-0.3,2.3-0.9c0.6-0.6,0.9-1.4,0.9-2.3c0-0.9-0.3-1.7-0.9-2.3c-0.6-0.6-1.4-0.9-2.3-0.9
		c-0.9,0-1.7,0.3-2.3,0.9c-0.6,0.6-0.9,1.4-0.9,2.3c0,0.9,0.3,1.7,0.9,2.3C542.7,508.4,543.5,508.8,544.4,508.8z"/>
	<path class="st0" d="M505.8,147.6h358v4h-358V147.6z"/>
	<path class="st0" d="M2.8,147.6h358v4H2.8V147.6z"/>
	<path class="st0" d="M2.8,374.6h860v4H2.8V374.6z"/>
</g>
<g id="naughty-list">
	<path class="st1" d="M33.4,262.8l-0.3-5.8h-1L17,328.4H0l26.8-126h16.5l3.9,65.7l0.3,5.8h1l15.3-71.5h17L54,328.4H37.6L33.4,262.8z
		"/>
	<path class="st1" d="M79.7,328.4l45.8-126h22.6l-7.7,126h-18l1.9-25.7h-17.8l-8.7,25.7H79.7z M129.1,243.4l0.2-3.3h-1l-1.2,3.3
		l-13.7,39.8h12.7L129.1,243.4z"/>
	<path class="st1" d="M242.2,202.4l-21.3,100.1c-1.4,5.1-3.4,9.8-6,13.7c-2.6,3.4-5.5,6.7-9.4,9.3c-4.1,2.9-9.1,4.3-15.1,4.3
		c-6,0-10.5-1.4-13.5-4.3c-2.9-2.6-4.5-5.8-5.1-9.3c-1.2-3.9-1.2-8.4-0.2-13.7l21.3-100.1h18.5L190,302.5c-0.9,3.3-0.5,6,0.9,7.9
		c0.7,0.9,1.7,1.4,3.3,1.4c3.3,0,5.3-2.1,6.5-4.6c0.5-1,1.2-2.6,1.7-4.6l21.3-100.1H242.2z"/>
	<path class="st1" d="M292.9,247.7l4.1-19.4c0.7-3.4,0.3-6-0.9-7.9c-0.7-0.9-1.9-1.4-3.4-1.4c-3.3,0-5.3,2.4-6.5,4.6
		c-0.7,1.4-1.2,2.9-1.5,4.6l-16.1,75.8c-0.9,3.3-0.5,6,0.9,7.9c0.7,0.9,1.7,1.4,3.3,1.4c3.3,0,5.3-2.1,6.5-4.6
		c0.5-1,1.2-2.6,1.7-4.6l4.8-22.8h-7.4l3.3-15.6h25.9l-13.2,62.7h-11l-1-6c-4.3,4.3-9.9,7.4-15.9,7.4c-6,0-9.8-1.5-12.3-4.3
		c-2.6-2.6-3.9-5.8-4.5-9.3c-0.9-3.9-0.5-8.4,0.9-13.7l15.8-74.2c1.2-5,3.1-9.4,5.8-13.5c2.6-3.4,5.3-6.9,9.3-9.4
		c3.9-2.6,9.1-4.3,15.3-4.3c6.2,0,10.5,1.7,13.4,4.3c2.9,2.6,4.6,6,5.3,9.4c1.2,3.8,1.2,8.2,0.3,13.5l-4.1,19.4H292.9z"/>
	<path class="st1" d="M369.6,273.6h-14.4l-11.7,54.9H325l26.8-126h18.5l-11.1,52.1h14.4l11.1-52.1h18.5l-26.8,126h-18.5L369.6,273.6
		z"/>
	<path class="st1" d="M423.4,221.5l4.1-19h53.5l-4.1,19h-17.5l-22.6,107h-18.5l22.6-107H423.4z"/>
	<path class="st1" d="M518.6,242.7l0.2,1.2h0.3l0.9-1.2l17.8-40.3H556l-34.3,72.3l-11.3,53.7h-18.5l11.3-53.7l-3.4-72.3h18.2
		L518.6,242.7z"/>
	<path class="st1" d="M624.8,202.4h18.5l-23.2,108.9h24.5l-3.6,17.1h-43L624.8,202.4z"/>
	<path class="st1" d="M692.5,202.4H711l-26.8,126h-18.5L692.5,202.4z"/>
	<path class="st1" d="M765.4,236.2c0.9-4.1,1.7-8.7,1.2-12.3c-0.5-3.4-1.9-5.8-4.8-5.8c-4.8,0.2-7.4,5.1-8.9,12.5
		c-0.9,4.3-0.2,8.7,1.7,13.5c1.9,4.8,4.1,9.8,6.7,15.1c3.3,6.3,5.8,12.9,7.9,19.2c1.9,6.3,2.7,12.9,1.2,19.7
		c-1.9,8.4-4.6,16.1-9.9,22.1c-5.3,6-12.2,9.6-22.5,9.6c-11.8,0-17.7-4.5-19.9-11.3c-2.6-6.9-1.2-15.8,0.7-25.4l18.5-1.7
		c-1.2,5.3-2.1,10.6-1.5,14.6c0.5,4.1,1.9,6.9,5.8,6.9c5.5,0,8.6-5.8,10.5-13.9c0.9-4.1,0-8.9-1.9-13.9c-0.5-1.2-1-2.6-1.5-3.8
		c-0.5-1.2-1-2.6-1.5-3.8c-1.2-2.6-2.6-5.3-3.9-8.2c-1.4-2.9-2.7-5.8-4.1-9.1c-2.9-6.5-4.5-13-5-19.5c-0.5-3.3,0-6.7,0.7-10.1
		c1.4-6.9,4.5-14.2,9.8-19.9c5-5.5,11.8-9.4,20.6-9.6c11.5-0.2,16.8,4.5,19,11.1c2.1,6.9,1.4,15.3-0.2,22.3L765.4,236.2z"/>
	<path class="st1" d="M807.2,221.5l4.1-19h53.5l-4.1,19h-17.5l-22.6,107h-18.5l22.6-107H807.2z"/>
</g>
</svg>
