<?xml version="1.0" encoding="utf-8"?>
<!-- Generator: Adobe Illustrator 19.0.0, SVG Export Plug-In . SVG Version: 6.00 Build 0)  -->
<svg version="1.1" id="Layer_1" xmlns="http://www.w3.org/2000/svg" xmlns:xlink="http://www.w3.org/1999/xlink" x="0px" y="0px"
	 viewBox="0 0 500 500" style="enable-background:new 0 0 500 500;" xml:space="preserve">
<style type="text/css">
	.st0{fill:#FF0000;}
	.st1{fill:#FFFFFF;}
</style>
<g>
	<path class="st0" d="M94.5,155.5C42.3,155.5,0,197.8,0,250s42.3,94.5,94.5,94.5S189,302.2,189,250S146.7,155.5,94.5,155.5z"/>
	<g>
		<g>
			<path class="st1" d="M128.5,291.8h-68c-8.5,0-15.5-7-15.5-15.5V233c0-8.5,7-15.5,15.5-15.5h68c8.5,0,15.5,7,15.5,15.5v43.3
				C144,284.8,137.1,291.8,128.5,291.8z M60.5,223.7c-5.1,0-9.3,4.2-9.3,9.3v43.3c0,5.1,4.2,9.3,9.3,9.3h68c5.1,0,9.3-4.2,9.3-9.3
				V233c0-5.1-4.2-9.3-9.3-9.3H60.5z"/>
		</g>
		<g>
			<path class="st1" d="M110,279.4c-11.9,0-21.7-9.7-21.7-21.7c0-11.9,9.7-21.7,21.7-21.7s21.7,9.7,21.7,21.7
				C131.6,269.7,121.9,279.4,110,279.4z M110,242.3c-8.5,0-15.5,7-15.5,15.5c0,8.5,7,15.5,15.5,15.5c8.5,0,15.5-7,15.5-15.5
				C125.4,249.2,118.5,242.3,110,242.3z"/>
		</g>
		<g>
			<path id="XMLID_2_" class="st1" d="M82.1,222.8c-1.7,0-3.1-1.4-3.1-3.1v-5.3H66.7v5.3c0,1.7-1.4,3.1-3.1,3.1
				c-1.7,0-3.1-1.4-3.1-3.1v-8.4c0-1.7,1.4-3.1,3.1-3.1h18.6c1.7,0,3.1,1.4,3.1,3.1v8.4C85.2,221.4,83.8,222.8,82.1,222.8z"/>
		</g>
		<g>
			<path id="XMLID_1_" class="st1" d="M82.1,242.3H63.6c-1.7,0-3.1-1.4-3.1-3.1s1.4-3.1,3.1-3.1h18.6c1.7,0,3.1,1.4,3.1,3.1
				C85.2,240.9,83.8,242.3,82.1,242.3z"/>
		</g>
	</g>
</g>
<g>
	<path d="M232.1,263.4v-23.8c0-7-1.5-10-6.8-10v-0.5h28.3v0.5c-5.3,0-6.8,3.1-6.8,10v27.5c0,8.4,3.4,13.9,12.2,13.9
		c8.2,0,15-4.8,15-16.9v-15.7c0-13.8-1.5-18.9-11.1-18.9v-0.5h23v0.5c-9.5,0-11.1,5.1-11.1,18.9v15.7c0,12.3-6.8,18.4-20,18.4
		C242,282.6,232.1,276.8,232.1,263.4z"/>
	<path d="M283.2,294.9c4.6,0,5.1-3.1,5.1-7.4V255c0-4.3-0.5-7.4-5.1-7.4v-0.5l18.2-1.7v5.4c2.4-2.8,6-5.5,11.5-5.5
		c9.9,0,15.5,8.8,15.5,18.4c0,10.1-6.2,18.8-18.1,18.8c-4,0-6.7-0.9-8.4-2v7.7c0,4.2,1.5,6.7,6,6.7v0.5h-24.6V294.9z M301.9,251.2
		v23.6c0,5,2.9,7,5.4,7c5.7,0,7-10.5,7-17.3c0-9.7-2.6-15.6-7.5-15.6C304.6,248.9,303,250,301.9,251.2z"/>
	<path d="M332.2,281.1c4.6,0,5.1-2.9,5.1-7.1v-39.8c0-4.3-0.5-7.1-5.1-7.1v-0.5l18.6-1.7v49.1c0,4.2,0.5,7.1,5.1,7.1v0.5h-23.7
		V281.1z"/>
	<path d="M359.6,263.9c0-11.2,9.2-18.6,21.4-18.6c12.2,0,21.4,7.4,21.4,18.6s-9.2,18.6-21.4,18.6
		C368.8,282.5,359.6,275.1,359.6,263.9z M388.1,263.9c0-11.6-1.8-18-7.1-18s-7.1,6.5-7.1,18c0,11.6,1.8,18,7.1,18
		S388.1,275.5,388.1,263.9z"/>
	<path d="M407.8,272.5c0-7.2,6.7-9.9,15-9.9c3.1,0,6.6,0.4,9.3,1.1v-8.9c0-4.8-1-9-6.5-9c-3.6,0-5.8,1.8-7.2,3.7
		c2.3,1.1,3.7,3.6,3.7,6c0,3.5-2.8,6.2-6.5,6.2c-4,0-6.1-3.3-6.1-6.4c0-5.6,6.8-10,16.8-10c8.9,0,19.3,3.6,19.3,13.8v18.2
		c0,1.6,0.9,2.4,2.2,2.4c2.1,0,4.1-2.1,5.4-4.2l0.4,0.3c-2.4,3.4-5.3,6.7-11.2,6.7c-5.3,0-8.3-2.6-9.6-6c-2.3,3.1-6,6-12.5,6
		C412.9,282.5,407.8,278.8,407.8,272.5z M432,276.5v-12.2c-1.3-0.3-2.8-0.7-4.1-0.7c-4.4,0-6.3,3.1-6.3,8.2c0,4.2,1.3,7.9,4.9,7.9
		C428.3,279.7,430.2,278.8,432,276.5z"/>
	<path d="M454.3,264.1c0-10.1,6.2-18.8,18.1-18.8c4,0,6.6,1,8.4,2v-13.1c0-5.2-2.2-7.1-6.8-7.1v-0.5l20.3-1.7v49.1
		c0,4.2,0.5,7.1,5.1,7.1v0.5h-18.2v-4.5c-2.4,2.8-6,5.4-11.5,5.4C459.9,282.5,454.3,273.7,454.3,264.1z M480.8,276.7v-26.4
		c-1.1-2.3-3-4.2-5.4-4.2c-5.8,0-7.1,11.1-7.1,17.5c0,8.9,2.6,15.4,7.6,15.4C478,279,479.6,277.8,480.8,276.7z"/>
</g>
</svg>
