<?xml version="1.0" encoding="utf-8"?>
<!-- Generator: Adobe Illustrator 19.0.0, SVG Export Plug-In . SVG Version: 6.00 Build 0)  -->
<svg version="1.1" id="Layer_1" xmlns="http://www.w3.org/2000/svg" xmlns:xlink="http://www.w3.org/1999/xlink" x="0px" y="0px"
	 viewBox="0 0 500 500" style="enable-background:new 0 0 500 500;" xml:space="preserve">
<style type="text/css">
	.st0{fill:#FF0000;}
	.st1{fill:#FFFFFF;}
</style>
<g>
	<path class="st0" d="M131.5,155.5C79.3,155.5,37,197.8,37,250s42.3,94.5,94.5,94.5S226,302.2,226,250S183.7,155.5,131.5,155.5z"/>
	<g>
		<g>
			<path class="st1" d="M165.5,291.8h-68c-8.5,0-15.5-7-15.5-15.5V233c0-8.5,7-15.5,15.5-15.5h68c8.5,0,15.5,7,15.5,15.5v43.3
				C181,284.8,174.1,291.8,165.5,291.8z M97.5,223.7c-5.1,0-9.3,4.2-9.3,9.3v43.3c0,5.1,4.2,9.3,9.3,9.3h68c5.1,0,9.3-4.2,9.3-9.3
				V233c0-5.1-4.2-9.3-9.3-9.3H97.5z"/>
		</g>
		<g>
			<path class="st1" d="M147,279.4c-11.9,0-21.7-9.7-21.7-21.7c0-11.9,9.7-21.7,21.7-21.7c11.9,0,21.7,9.7,21.7,21.7
				C168.6,269.7,158.9,279.4,147,279.4z M147,242.3c-8.5,0-15.5,7-15.5,15.5c0,8.5,7,15.5,15.5,15.5c8.5,0,15.5-7,15.5-15.5
				C162.4,249.2,155.5,242.3,147,242.3z"/>
		</g>
		<g>
			<path id="XMLID_2_" class="st1" d="M119.1,222.8c-1.7,0-3.1-1.4-3.1-3.1v-5.3h-12.4v5.3c0,1.7-1.4,3.1-3.1,3.1
				c-1.7,0-3.1-1.4-3.1-3.1v-8.4c0-1.7,1.4-3.1,3.1-3.1h18.6c1.7,0,3.1,1.4,3.1,3.1v8.4C122.2,221.4,120.8,222.8,119.1,222.8z"/>
		</g>
		<g>
			<path id="XMLID_1_" class="st1" d="M119.1,242.3h-18.6c-1.7,0-3.1-1.4-3.1-3.1s1.4-3.1,3.1-3.1h18.6c1.7,0,3.1,1.4,3.1,3.1
				C122.2,240.9,120.8,242.3,119.1,242.3z"/>
		</g>
	</g>
</g>
<g>
	<path d="M266.1,280.4l-0.8-16.2l0.4-0.1c4.2,10.5,9.4,17.9,19.3,17.9c7.4,0,11.1-4.1,11.1-9c0-14.4-30.3-9.7-30.3-29.7
		c0-9.9,7.4-15.3,20.5-15.3c7.3,0,11.6,1.7,17.7,0.3l0.8,17.4l-0.3,0.1c-4-9.7-8.2-17.3-17.6-17.3c-6.7,0-9.8,3.9-9.8,8.2
		c0,13.5,30.4,9.6,30.4,29.5c0,10.8-9,16.3-22.3,16.3C279.4,282.6,271.4,281.5,266.1,280.4z"/>
	<path d="M312.8,281.1c4.6,0,5.1-2.9,5.1-7.1v-19.3c0-4.2-0.5-7.1-5.1-7.1V247l18.2-1.7v7c3.5-3.7,8.3-7,14.1-7
		c5.8,0,10.7,3.3,10.7,11.6v17c0,4.2,0.5,7.1,5.1,7.1v0.5H338v-0.5c3.6,0,4.2-2.9,4.2-7.1v-18.5c0-4.2-1.9-5.9-4.5-5.9
		c-2.6,0-4.7,1.4-6.4,3.1v21.3c0,4.2,0.7,7.1,4.2,7.1v0.5h-22.9V281.1z"/>
	<path d="M364.5,272.5c0-7.2,6.7-9.9,15-9.9c3.1,0,6.6,0.4,9.3,1.1v-8.9c0-4.8-1-9-6.5-9c-3.6,0-5.8,1.8-7.2,3.7
		c2.3,1.1,3.7,3.6,3.7,6c0,3.5-2.8,6.2-6.5,6.2c-4,0-6.1-3.3-6.1-6.4c0-5.6,6.8-10,16.8-10c8.9,0,19.3,3.6,19.3,13.8v18.2
		c0,1.6,0.9,2.4,2.2,2.4c2.1,0,4.1-2.1,5.4-4.2l0.4,0.3c-2.4,3.4-5.3,6.7-11.2,6.7c-5.3,0-8.3-2.6-9.6-6c-2.3,3.1-6,6-12.5,6
		C369.6,282.5,364.5,278.8,364.5,272.5z M388.8,276.5v-12.2c-1.3-0.3-2.8-0.7-4.1-0.7c-4.4,0-6.3,3.1-6.3,8.2c0,4.2,1.3,7.9,4.9,7.9
		C385.1,279.7,387,278.8,388.8,276.5z"/>
	<path d="M409.2,294.9c4.6,0,5.1-3.1,5.1-7.4V255c0-4.3-0.5-7.4-5.1-7.4v-0.5l18.2-1.7v5.4c2.4-2.8,6-5.5,11.5-5.5
		c9.9,0,15.5,8.8,15.5,18.4c0,10.1-6.2,18.8-18.1,18.8c-4,0-6.7-0.9-8.4-2v7.7c0,4.2,1.5,6.7,6,6.7v0.5h-24.6V294.9z M427.8,251.2
		v23.6c0,5,2.9,7,5.4,7c5.7,0,7-10.5,7-17.3c0-9.7-2.6-15.6-7.5-15.6C430.5,248.9,428.9,250,427.8,251.2z"/>
</g>
</svg>
