<?xml version="1.0" encoding="utf-8"?>
<!-- Generator: Adobe Illustrator 19.0.0, SVG Export Plug-In . SVG Version: 6.00 Build 0)  -->
<svg version="1.1" id="Layer_1" xmlns="http://www.w3.org/2000/svg" xmlns:xlink="http://www.w3.org/1999/xlink" x="0px" y="0px"
	 viewBox="0 0 500 500" style="enable-background:new 0 0 500 500;" xml:space="preserve">
<style type="text/css">
	.st0{fill-rule:evenodd;clip-rule:evenodd;fill:#FF0000;}
	.st1{fill:#FFFFFF;}
</style>
<path class="st0" d="M250,0C111.9,0,0,111.9,0,250c0,138.1,111.9,250,250,250c138.1,0,250-111.9,250-250C500,111.9,388.1,0,250,0z"
	/>
<g>
	<g>
		<path class="st1" d="M340,360.5H160c-22.6,0-40.9-18.4-40.9-40.9V205c0-22.6,18.4-40.9,40.9-40.9H340c22.6,0,40.9,18.4,40.9,40.9
			v114.6C381,342.1,362.6,360.5,340,360.5z M160,180.4c-13.5,0-24.6,11-24.6,24.6v114.6c0,13.5,11,24.6,24.6,24.6H340
			c13.5,0,24.6-11,24.6-24.6V205c0-13.5-11-24.6-24.6-24.6H160z"/>
	</g>
	<g>
		<path class="st1" d="M290.9,327.8c-31.6,0-57.3-25.7-57.3-57.3s25.7-57.3,57.3-57.3c31.6,0,57.3,25.7,57.3,57.3
			S322.5,327.8,290.9,327.8z M290.9,229.5c-22.6,0-40.9,18.4-40.9,40.9s18.4,40.9,40.9,40.9c22.6,0,40.9-18.4,40.9-40.9
			S313.5,229.5,290.9,229.5z"/>
	</g>
	<g>
		<path id="XMLID_2_" class="st1" d="M217.3,178.1c-4.5,0-8.2-3.7-8.2-8.2v-14h-32.7v14c0,4.5-3.7,8.2-8.2,8.2
			c-4.5,0-8.2-3.7-8.2-8.2v-22.2c0-4.5,3.7-8.2,8.2-8.2h49.1c4.5,0,8.2,3.7,8.2,8.2v22.2C225.4,174.4,221.8,178.1,217.3,178.1z"/>
	</g>
	<g>
		<path id="XMLID_1_" class="st1" d="M217.3,229.5h-49.1c-4.5,0-8.2-3.7-8.2-8.2c0-4.5,3.7-8.2,8.2-8.2h49.1c4.5,0,8.2,3.7,8.2,8.2
			C225.4,225.9,221.8,229.5,217.3,229.5z"/>
	</g>
</g>
</svg>
