<svg xmlns="http://www.w3.org/2000/svg" id="Layer_1" viewBox="0 0 700.4 358.4"><path d="M381.2 34.9l-14.3 3.8-6-3.5v-7.7l6-3.5 14.3 3.8 1-3.9-10.4-2.8 6.5-3.8-2-3.5-6.5 3.8 2.8-10.4-3.9-1-3.8 14.3-6.1 3.5-6.6-3.8v-7l10.4-10.4-2.8-2.8-7.6 7.6V.1h-4v7.5L340.6 0l-2.8 2.8 10.4 10.4v7l-6.6 3.8-6.1-3.5-3.8-14.3-3.9 1 2.8 10.4-6.5-3.8-2 3.5 6.5 3.8-10.4 2.9 1 3.9 14.3-3.8 6 3.5v7.7l-6 3.5-14.3-3.8-1 3.9 10.4 2.8-6.5 3.8 2 3.5 6.5-3.8-2.8 10.4 3.9 1 3.8-14.3 6-3.4 6.7 3.9v6.9L337.8 60l2.8 2.8 7.6-7.6v7.5h4v-7.5l7.6 7.6 2.8-2.8-10.4-10.4v-6.9l6.7-3.9 6 3.4 3.8 14.3 3.9-1-2.8-10.5 6.5 3.8 2-3.5-6.5-3.8 10.4-2.8-1-3.8zm-24.3.4l-6.7 3.9-6.7-3.9v-7.7l6.7-3.9 6.7 3.9v7.7zM12.3 177.9h14v33.6h12.5v-78.4H26.3v33.6h-14v-33.6H0v78.4h12.3v-33.6zM86.4 133.1h-18l-12.5 78.4h11.3l2.1-14.2h15.1l2.1 14.2h12.4l-12.5-78.4zM76.7 147l5.9 39.6H70.8l5.9-39.6zM134 133.1h-18.1v78.4h12.3V182h5.8c12.3 0 18.4-6.8 18.4-19.4v-10.2c-.1-12.4-6.1-19.3-18.4-19.3zm0 11.2c3.9 0 6 1.8 6 7.4v11.8c0 5.6-2.1 7.4-6 7.4h-5.8v-26.5h5.8zM187.4 133.1h-18.1v78.4h12.3V182h5.8c12.3 0 18.4-6.8 18.4-19.4v-10.2c-.1-12.4-6.1-19.3-18.4-19.3zm0 11.2c3.9 0 6 1.8 6 7.4v11.8c0 5.6-2.1 7.4-6 7.4h-5.8v-26.5h5.8zM234 211.5h12.3v-26l15.6-52.4h-11.8l-9.4 35.7-9.4-35.7h-12.9l15.6 52.4v26zM318.9 177.9h14v33.6h12.5v-78.4h-12.5v33.6h-14v-33.6h-12.3v78.4h12.3v-33.6zM376.9 151.2c0-5.6 2.5-7.7 6.4-7.7 3.9 0 6.4 2.1 6.4 7.7v42.3c0 5.6-2.5 7.7-6.4 7.7-3.9 0-6.4-2.1-6.4-7.7v-42.3zm-12.3 41.5c0 12.5 6.6 19.7 18.7 19.7s18.7-7.2 18.7-19.7V152c0-12.5-6.6-19.7-18.7-19.7s-18.7 7.2-18.7 19.7v40.7zM421.1 211.5h32.6v-11.2h-20.3v-67.2h-12.3v78.4zM470.3 211.5h12.3v-78.4h-12.3v78.4zM502.8 211.5h19.5c12.3 0 18.4-6.8 18.4-19.4v-39.6c0-12.5-6-19.4-18.4-19.4h-19.5v78.4zm19.2-67.2c3.9 0 6.3 2 6.3 7.6v40.8c0 5.6-2.4 7.6-6.3 7.6h-6.9v-56h6.9zM586.9 133.1h-18l-12.5 78.4h11.3l2.1-14.2h15.1l2.1 14.2h12.4l-12.5-78.4zm-9.7 13.9l5.9 39.6h-11.9l6-39.6zM622.4 211.5h12.3v-26l15.6-52.4h-11.8l-9.4 35.7-9.4-35.7h-12.9l15.6 52.4v26zM664 152c0 22.4 24.1 25.4 24.1 41.6 0 5.6-2.5 7.6-6.4 7.6-3.9 0-6.4-2-6.4-7.6V188h-11.6v4.8c0 12.5 6.3 19.7 18.4 19.7 12.1 0 18.4-7.2 18.4-19.7 0-22.4-24.1-25.4-24.1-41.6 0-5.6 2.2-7.7 6.2-7.7 3.9 0 6.2 2.1 6.2 7.7v3.2h11.6V152c0-12.5-6.2-19.7-18.1-19.7-12.1 0-18.3 7.1-18.3 19.7z" class="st0"/><g><path d="M130.2 279.2h11.9v-.2c-2.5 0-3.4-.7-2.7-3.8l1.5-6.6h.8c4.1 0 5.3 2.3 5.3 5.3h.2l2.5-10.8h-.2c-1.4 3-3.6 5.3-7.7 5.3h-.8l2.6-11.1h2.4c5.1 0 7 3 6.9 7.2h.2l1.2-7.4h-19l-.1.2c2.5 0 2.9.8 2.2 3.5l-3.4 14.8c-.6 2.7-1.4 3.5-3.8 3.5v.1zM155.4 279.2h11.4v-.2c-2.5 0-2.8-.8-2.2-3.5l1.6-6.9h2.7c3.1 0 3.1 1.5 3.2 5.5 0 2.7.1 4.4.4 5.1h7.7v-.2c-2.1 0-2.5-.8-2.7-3.1-.6-5.5.7-7.3-7.1-7.3v-.1c4-.1 10.6-1.1 10.6-6.3 0-3.5-3-5.2-8.6-5.2h-11.8l-.1.2c2.5 0 2.9.8 2.2 3.5l-3.4 14.8c-.6 2.7-1.4 3.5-3.8 3.5l-.1.2zm10.9-10.9l2.6-11.1h2.4c3.1 0 4.3 1.8 4.3 4.3 0 3.2-1.9 6.8-6.6 6.8h-2.7zM197.6 279.6c8 0 14.7-6.2 14.7-13.5 0-5.9-4.3-9.6-10.5-9.6-8 0-14.7 6.2-14.7 13.5 0 6 4.3 9.6 10.5 9.6zm-.5-.3c-3.3 0-4.6-2.7-4.6-6.7 0-7.2 3.9-15.8 9.9-15.8 3.3 0 4.6 2.7 4.6 6.7 0 7.4-4.1 15.8-9.9 15.8zM214 279.2h9.4v-.2c-3.7 0-3.9-1.8-1.4-10.2l2.5-8.1 4.6 18h.2l12.1-18.6-2.6 14.7c-.5 2.7-1.4 4.2-3.9 4.2v.2h11.6v-.2c-2.6 0-2.9-1.4-2.3-4.4l2.3-12.9c.5-2.8 1.3-4.5 4-4.5l.1-.2h-7.5L233 272.6l-3.8-15.6h-8.5l-.1.2c3.7 0 4 2.1 2.8 6.1l-1.7 5.6c-2.4 8.4-3.9 10.2-7.7 10.2v.1zM266.9 279.2h12.5v-.2c-2.6 0-3.3-1-2.6-4.1l1.4-6 3.5-4.2c2.1-2.5 3.4-4.1 4.5-5.2 1.5-1.5 3.1-2.3 5-2.3l.1-.2H282l-.1.2c1.9 0 2.6.7 2.6 1.7 0 1.2-1 3-3.2 5.6l-3.4 4.2h-.1L275 261c-.8-2.2.1-3.9 2.4-3.9v-.2h-11.7l-.1.2c1.8 0 2.8 1.5 3.7 3.9l3.3 8.5-1.3 5.4c-.7 3.1-1.9 4.1-4.5 4.1l.1.2zM302.1 279.6c8 0 14.7-6.2 14.7-13.5 0-5.9-4.3-9.6-10.5-9.6-8 0-14.7 6.2-14.7 13.5 0 6 4.3 9.6 10.5 9.6zm-.5-.3c-3.3 0-4.6-2.7-4.6-6.7 0-7.2 3.9-15.8 9.9-15.8 3.3 0 4.6 2.7 4.6 6.7 0 7.4-4.1 15.8-9.9 15.8zM331.5 279.6c5.3 0 8.7-2.6 10-7.8l1.3-5.4c1.7-7.2 2.6-9.3 6.7-9.3l.1-.2h-9.4v.2c4 0 4.1 2.1 2.4 9.3l-1.2 5.4c-1.2 4.9-4.4 7.2-8.1 7.2-3.8 0-4.7-2.5-3.9-6.3l2.7-11.7c.6-2.7 1.4-4 3.9-4l.1-.2h-11.4v.2c2.4 0 2.7 1.2 2.1 4l-2.4 10.5c-1.5 5.9 2.1 8.1 7.1 8.1zM348.7 279.2h11.4v-.2c-2.5 0-2.8-.8-2.2-3.5l1.6-6.9h2.7c3.1 0 3.1 1.5 3.2 5.5 0 2.7.1 4.4.4 5.1h7.7v-.2c-2.1 0-2.5-.8-2.7-3.1-.6-5.5.7-7.3-7.1-7.3v-.1c4-.1 10.6-1.1 10.6-6.3 0-3.5-3-5.2-8.6-5.2h-11.8l-.1.2c2.5 0 2.9.8 2.2 3.5l-3.4 14.8c-.6 2.7-1.4 3.5-3.8 3.5l-.1.2zm10.9-10.9l2.6-11.1h2.4c3.1 0 4.3 1.8 4.3 4.3 0 3.2-1.9 6.8-6.6 6.8h-2.7zM389.7 279.2h11.9v-.2c-2.5 0-3.4-.7-2.7-3.8l1.5-6.6h.8c4.1 0 5.3 2.3 5.3 5.3h.2l2.5-10.8h-.2c-1.4 3-3.6 5.3-7.7 5.3h-.8l2.6-11.1h2.4c5.1 0 7 3 6.9 7.2h.2l1.2-7.4h-19l-.1.2c2.5 0 2.9.8 2.2 3.5l-3.4 14.8c-.6 2.7-1.4 3.5-3.8 3.5v.1zM414.9 279.2h11.4v-.2c-2.5 0-2.8-.8-2.2-3.5l1.6-6.9h2.7c3.1 0 3.1 1.5 3.2 5.5 0 2.7.1 4.4.4 5.1h7.7v-.2c-2.1 0-2.5-.8-2.7-3.1-.6-5.5.7-7.3-7.1-7.3v-.1c4-.1 10.6-1.1 10.6-6.3 0-3.5-3-5.2-8.6-5.2H420l-.1.2c2.5 0 2.9.8 2.2 3.5l-3.4 14.8c-.6 2.7-1.4 3.5-3.8 3.5v.2zm10.9-10.9l2.6-11.1h2.4c3.1 0 4.3 1.8 4.3 4.3 0 3.2-1.9 6.8-6.6 6.8h-2.7zM444.2 279.2h11.4v-.2c-2.5 0-2.8-.8-2.2-3.5l3.4-14.8c.6-2.7 1.3-3.5 3.8-3.5l.1-.2h-11.4l-.1.2c2.5 0 2.9.8 2.2 3.5l-3.4 14.8c-.6 2.7-1.4 3.5-3.8 3.5v.2zM461.2 279.2h19.4l2.4-7.8h-.2c-1.9 3.7-4.8 7.6-10.4 7.6h-2.8l2.4-10.7h1c4 0 5.3 2.2 5.3 5.2h.2l2.4-10.7h-.2c-1.3 3-3.6 5.2-7.7 5.2h-1l2.5-10.8h2.6c5.4 0 7 2.9 7 7.1h.1l1.2-7.3h-19.2l-.1.2c2.5 0 2.9.8 2.2 3.5l-3.4 14.8c-.6 2.7-1.4 3.5-3.8 3.5l.1.2zM487.1 279.2h9.4v-.2c-4.1 0-4-2.1-2.3-9.8l1.8-7.5 11.8 17.7h.2l2.9-12.5c1.7-7.6 2.7-9.8 6.8-9.8l.1-.2h-9.4l-.1.2c4.1 0 4 2.1 2.3 9.8l-1.3 5.4-10.2-15.3h-6.7l-.1.2c3.5 0 3.8 2.1 2.9 5.9l-1.4 6.1c-1.7 7.6-2.7 9.8-6.8 9.8l.1.2zM517.2 279.2h12c9.4 0 15.8-5.8 15.8-13.1 0-6-4.2-9.2-10.7-9.2h-12l-.1.2c2.5 0 2.9.8 2.2 3.5l-3.4 14.8c-.6 2.7-1.4 3.5-3.8 3.5v.3zm8.5-.3l5-21.7h2.9c4.3 0 5.9 3.4 5.9 7.6 0 5.9-3 14.1-10.9 14.1h-2.9zM558 279.6c7.1 0 10-3 10-7.1 0-7.9-10.7-6.3-10.7-11.6 0-2.2 1.8-4.2 5.4-4.2 4 0 5.4 2.6 6.1 7.1h.1l1.3-7.2c-2.6.6-4.6-.1-7.7-.1-6.2 0-9.3 3-9.3 6.9 0 7.3 10.5 5.6 10.5 11.2 0 2.2-1.6 4.8-5.8 4.8-4.8 0-6-3.3-6.7-7.6h-.2l-1.2 6.8c2.1.5 5.4 1 8.2 1z" class="st0"/></g><g><path d="M246.5 358.4c1.7 0 4.2-1.6 7.6-4.7 3.4-3.1 5.1-5 5.1-5.7 0 0 0-.1-.1-.2 0-.1-.1-.1-.1-.2-1.2 1.6-3.3 3.6-6.1 6s-5 3.7-6.6 3.7c-.2 0-.4-.1-.5-.2-.1-.2-.2-.4-.2-.7 0-3.3 3.4-8.5 10.3-15.8 6.9-7.2 10.3-13 10.3-17.2 0-.8-.1-1.6-.4-2.2-.3-.6-.8-1-1.6-1-1.7 0-4.4 1.8-8.1 5.4-3.7 3.6-7.7 7.6-12.1 12-1-1.5-2.4-2.6-4.3-3.3-1.9-.7-3.9-1.1-6.2-1.1-4.7 0-9.6 1.7-14.5 5-5 3.3-7.4 7.2-7.4 11.6 0 2.5.7 4.4 2.2 5.6 1.5 1.2 3 1.8 4.6 1.8 3.6 0 7.7-1.8 12.3-5.6 4.6-3.7 9-7.7 13.3-12.1.2.4.3.8.3 1.3.1.4.1.9.1 1.4 0 1.7-.2 3.1-.7 4-.4.9-.7 1.5-.7 1.8 0 .1 0 .2.1.4l.2.2c.4-.6.8-1.5 1.2-2.5.4-1 .6-2.3.6-3.8 0-.6-.1-1.2-.2-1.8-.1-.6-.3-1.1-.5-1.6 4.3-4.5 8.3-8.6 11.8-12.3 3.6-3.7 6.1-5.6 7.7-5.6.3 0 .5.1.6.2.1.1.2.3.2.4 0 3.7-3.6 8.9-10.8 15.4-7.2 6.6-10.8 12.3-10.8 17.3 0 1 .3 1.9.8 2.8.9.9 1.7 1.3 2.6 1.3zm-28.3-2.3c-1.7 0-2.9-.4-3.5-1.3-.7-.9-1-1.7-1-2.7 0-4 2.3-8 6.9-12 4.6-4.1 9-6.1 13.1-6.1 2.3 0 4.4.4 6.1 1 1.7.7 3 1.8 3.8 3.1-4.4 4.4-9 8.5-13.5 12.3-4.6 3.9-8.6 5.7-11.9 5.7zM264.9 356.1c1.8 0 4.3-1.4 7.5-4.2 3.2-2.8 4.7-4.5 4.7-5.1 0 0 0-.1-.1-.1 0-.1-.1-.1-.1-.2-1.1 1.4-3 3.2-5.6 5.4-2.6 2.2-4.9 3.3-6.8 3.3 0-.8.4-1.8 1.2-3.2.9-1.4 2.2-3.3 4.1-5.8.7-.9 1.4-1.8 2.1-2.8l2.1-2.7c.8 0 1.5-.1 2.2-.1.7 0 1.4 0 2.2-.1 0-.2 0-.4-.1-.6-.1-.2-.3-.3-.7-.3h-2.7c2.2-2.9 4.1-5.4 5.8-7.7 1.7-2.2 2.5-3.7 2.5-4.5 0-.4-.1-.8-.4-1.2-.3-.5-.7-.8-1.3-1 0 .9-1 2.7-3.1 5.5s-4.4 5.8-6.8 8.9h-3.3c0 .4.1.7.2.9.2.2.5.3 1 .3h1.1l-1.5 1.8c-.5.6-.9 1.2-1.4 1.7-1.6 2.1-2.9 3.8-3.8 5.2-.9 1.4-1.4 2.6-1.4 3.8 0 .4.1.8.2 1.2.2.4.4.7.7 1 .2.2.5.4.7.5.3.1.5.1.8.1zM319.7 338.1h7.5v18h6.7v-42h-6.7v18h-7.5v-18h-6.6v42h6.6v-18zM344.7 356.1h6.6v-42h-6.6v42zM368.7 320.1h11.4v-6h-18v42h18v-6h-11.4v-12.3h9.1v-6h-9.1v-11.7zM400.1 314.1h-10v42h10.4c6.6 0 10-3.5 10-10v-3.4c0-4.4-1.4-7.6-4.9-9 2.9-1.4 4.3-4.1 4.3-8.5v-1.5c0-6.4-2.9-9.6-9.8-9.6zm-.4 23.1c3 0 4.3 1.2 4.3 5.1v3.7c0 3.1-1.2 4.1-3.4 4.1h-3.8v-12.9h2.9zm.3-17.1c2.3 0 3.4 1.3 3.4 4.3v2.3c0 3.4-1.5 4.4-4 4.4h-2.6V320h3.2zM420.5 356.1h6.6v-42h-6.6v42zM452 356.1h6.8v-42h-5.9v25.1l-6.8-25.1h-8.3v42h5.9v-30.4l8.3 30.4zM479.5 338.7h3v7.7c0 3-1.3 4.1-3.4 4.1-2.1 0-3.4-1.1-3.4-4.1v-22.7c0-3 1.3-4.1 3.4-4.1 2.1 0 3.4 1.1 3.4 4.1v4.5h6.2v-4.1c0-6.7-3.4-10.6-9.8-10.6s-9.8 3.8-9.8 10.6v21.8c0 6.7 3.4 10.6 9.8 10.6s9.8-3.8 9.8-10.6v-13.3h-9.2v6.1z" class="st0"/></g></svg>