<?xml version="1.0" encoding="utf-8"?>
<!-- Generator: Adobe Illustrator 19.0.0, SVG Export Plug-In . SVG Version: 6.00 Build 0)  -->
<svg version="1.1" id="Layer_1" xmlns="http://www.w3.org/2000/svg" xmlns:xlink="http://www.w3.org/1999/xlink" x="0px" y="0px"
	 viewBox="0 0 500 500" style="enable-background:new 0 0 500 500;" xml:space="preserve">
<style type="text/css">
	.st0{fill-rule:evenodd;clip-rule:evenodd;fill:#FF0000;}
</style>
<path class="st0" d="M250,50C139.5,50,50,139.5,50,250c0,110.5,89.5,200,200,200c110.5,0,200-89.5,200-200
	C450,139.5,360.5,50,250,50z M243.7,325.6l-34.8,34.9c-19.2,19.3-50.4,19.3-69.6,0c-19.2-19.3-19.2-50.5,0-69.8l34.8-34.9
	c12.9-12.9,31.2-17.1,47.6-12.7l-29.9,29.9c-0.1,0.1-0.2,0.1-0.2,0.2l-34.8,34.9c-9.6,9.6-9.6,25.2,0,34.9c9.6,9.6,25.2,9.6,34.8,0
	l34.8-34.9c0.2-0.2,0.4-0.5,0.6-0.8l29.4-29.4C260.8,294.4,256.6,312.7,243.7,325.6z M300.6,217.1l-83.3,83.3l0,0
	c-2.3,2.3-5.4,3.7-8.9,3.7c-6.9,0-12.5-5.6-12.5-12.5c0-3.6,1.6-6.9,4-9.1l82.7-82.7c2.3-2.5,5.5-4,9.1-4c6.9,0,12.5,5.6,12.5,12.5
	C304.2,211.8,302.8,214.8,300.6,217.1L300.6,217.1z M360.3,208.9l-34.8,34.9c-12.9,13-31.3,17.2-47.7,12.7l29-29
	c0.4-0.4,0.9-0.7,1.3-1.1l34.8-34.9c9.6-9.6,9.6-25.2,0-34.9c-9.6-9.6-25.2-9.6-34.8,0l-34.8,34.9c0,0,0,0,0,0l0,0l-30.1,30.1
	c-4.3-16.4-0.1-34.6,12.7-47.5l34.8-34.9c19.2-19.3,50.4-19.3,69.6,0C379.5,158.4,379.5,189.7,360.3,208.9z"/>
</svg>
