<svg xmlns="http://www.w3.org/2000/svg" id="Layer_1" viewBox="0 0 360 108"><path d="M20.1 47.7c0-13.9 11.3-25.2 25.2-25.2 13.9 0 25.2 11.3 25.2 25.2 0 13.9-11.3 25.2-25.2 25.2-13.9 0-25.2-11.3-25.2-25.2zm-6.2 0c0-17.4 14.1-31.5 31.5-31.5s31.5 14.1 31.5 31.5-14.1 31.5-31.5 31.5-31.5-14.1-31.5-31.5z" class="st0fillhere"/><path d="M36.5 32.5l3.8 6.5c-2.2 1.3-3.9 3.4-4.7 5.9h19.5c-.7-2.6-2.5-4.7-4.7-6l3.7-6.5c5.3 3 8.9 8.8 8.9 15.4s-3.6 12.3-8.9 15.3l-3.7-6.5c2.2-1.3 4-3.4 4.7-6H35.6c.7 2.5 2.4 4.7 4.7 6L36.4 63c-5.2-3.1-8.8-8.7-8.8-15.2.1-6.6 3.6-12.3 8.9-15.3z" class="st1"/><g><path d="M229.3 31.1c-2.9 0-5.7 1.4-10.9 5.2V16.6h-10.9v62.5h10v-5.7h.2c1.9 2.9 6.8 6.6 11.6 6.6 8.5 0 12-6.6 12-18.7V49.8c0-12.1-3.5-18.7-12-18.7zm1.1 29.5c0 9.4-2.4 11.3-5.4 11.3-2.4 0-4.4-1-6.6-3.4V42.6c2.2-2.3 4.2-3.4 6.6-3.4 2.9 0 5.4 1.9 5.4 11.3v10.1zM200.9 58.1v-11c0-9.6-7.2-16-17.3-16-10.4 0-17.3 6.4-17.3 16.7v15.4c0 10.3 6.9 16.7 17.3 16.7 11 0 16.8-5.7 17.3-15.4H190c0 3.6-1.8 6.6-6.4 6.6-3.6 0-6.4-2.1-6.4-6.8v-6.2h23.7zm-23.8-11.4c0-4.2 2-6.8 6.4-6.8s6.4 2.6 6.4 6.8v2.6h-12.8v-2.6z" class="st1"/><rect width="10.9" height="47.1" x="148.4" y="32" class="st1"/><polygon points="128.4 41.5 111.5 41.5 111.5 16.6 99.6 16.6 99.6 79.1 111.5 79.1 111.5 52.1 128.4 52.1 128.4 79.1 140.4 79.1 140.4 16.6 128.4 16.6" class="st1"/><rect width="10.9" height="9.9" x="148.4" y="16.5" class="st1"/><path d="M316.9 70c0-1.1 1.3-1.9 1.9-2.8 1.6.5 2.9.6 4.5.6 10.7 0 15.8-6.8 15.8-18.5 0-2.6-.4-7.7-3.1-11.8h4.2v-6.4h-17-.1c-12.2 0-16.1 7.6-16.1 17.8 0 7.9 1.8 12.9 7.1 16.4-2.7 1.7-6.6 4.2-6.6 7.9 0 3 1.9 5.1 4.5 6.7-2.6 1.6-6.6 3.8-6.6 7.4 0 5.3 6.4 8.6 18 8.6 12.6 0 21-3.8 21-11.9-.1-17.2-27.5-8.1-27.5-14zm6.1-30.1c3.8 0 5.7 3 5.7 9.1 0 8.2-1.6 10-6.2 10-3.3 0-5.2-2.9-5.2-8.8 0-7.4 1.5-10.3 5.7-10.3zm2.7 48.5c-6.4 0-10-1-10-3.5 0-1.7 1.1-2.7 2.3-3.8l12 1c3.3.3 4 1 4 2.5-.1 2.5-3.1 3.8-8.3 3.8z" class="st1"/><rect width="10.9" height="9.9" x="248.5" y="16.5" class="st1"/><path d="M290.5 31.1c-4.5 0-8.2 2.8-12.2 6.2V32h-10.6v47.1h10.9V43.5c2.3-2.1 4.8-4.2 7.1-4.2 2.9 0 4 2.1 4 5.2v34.6h10.9V43.2c0-8.7-3.5-12.1-10.1-12.1z" class="st1"/><rect width="10.9" height="47.1" x="248.5" y="32" class="st1"/></g></svg>
