<svg xmlns="http://www.w3.org/2000/svg" viewBox="0 0 587.2 144.4"><path d="M348.3 0v30.6h7.6v1h-31.3v-1h7.6V9.1c-2.1.4-4.3.6-6.6.6h-1v-.8h1c2.8 0 5.6-.4 8.3-1.2 1.2-.4 2.9-1 5-1.9 3.1-1.4 5.9-3.4 8.3-5.8h1.1zM390 25c0 .9-.1 1.8-.4 2.6-.3.8-.7 1.6-1.3 2.2-.6.7-1.2 1.2-2 1.6-.8.4-1.7.6-2.6.6-2 0-3.8-.3-5.6-.8-1.8-.6-3.4-1.2-5.1-1.8-1.6-.7-3.2-1.3-4.8-1.9-1.5-.6-3.1-.9-4.6-.9-1.1 0-2.1.5-2.8 1.4-.7.9-1.1 2.2-1.1 4h-1V21.7c0-1.4.4-2.5 1.2-3.2.8-.7 1.8-1.2 3-1.6 1.2-.4 2.5-.6 3.9-.9 1.4-.2 2.7-.5 3.9-1 1.2-.4 2.2-1.1 3-2 .8-.9 1.2-2.2 1.2-3.9 0-1-.2-1.9-.6-2.7-.4-.8-.9-1.6-1.5-2.2-.6-.6-1.4-1.1-2.1-1.4-.8-.3-1.6-.5-2.3-.5h-1.5c-.4 0-.7 0-1 .1-.3 0-.5.1-.6.1.8 0 1.6.1 2.4.4.8.3 1.5.7 2 1.3.6.6 1.1 1.3 1.4 2.1.4.8.5 1.8.5 2.8 0 1-.2 1.9-.6 2.7-.4.8-.9 1.5-1.5 2-.6.6-1.3 1-2.1 1.2-.8.3-1.5.4-2.2.4-.7 0-1.5-.1-2.2-.4-.8-.3-1.4-.7-2.1-1.3-.6-.6-1.1-1.2-1.5-2s-.6-1.7-.6-2.7c0-1.1.2-2.2.7-3.3.5-1.1 1.3-2 2.5-2.8 1.2-.8 2.8-1.4 4.8-1.9s4.6-.7 7.7-.7c3.1 0 5.7.2 7.7.5 2 .4 3.6.9 4.8 1.6 1.2.7 2 1.6 2.5 2.7s.7 2.4.7 3.8c0 1.9-.4 3.3-1.3 4.4-.8 1.1-2 1.8-3.5 2.4-1.5.5-3.2.8-5.2 1-2 .1-4.1.2-6.4.2-3.4 0-6.1.1-7.9.4-1.9.3-3.3.7-4.1 1.1-.9.4-1.4.9-1.5 1.4-.2.5-.2 1-.2 1.4 0-.3.1-.7.4-1.1.3-.4 1-.8 2-1.1 1.1-.4 2.6-.7 4.7-.9 2-.3 4.8-.4 8.3-.4 3.1 0 5.7-.1 7.6-.4 1.9-.2 3.4-.5 4.4-.9 1-.3 1.7-.6 2.1-1 .3-.3.5-.6.6-.7V25zM408 7h7.1c5.4 0 9.8 4.2 9.8 9.6 0 5.4-4.4 9.6-9.8 9.6H408V7zm5 15h1.1c3 0 5.5-1.6 5.5-5.4 0-3.4-2.3-5.4-5.5-5.4H413V22zM436 22.9l-1.3 3.3h-5.3L436.8 7h5.5l7.2 19.2h-5.3l-1.2-3.3h-7zm3.5-10l-2.1 6.1h4.2l-2.1-6.1zM451.4 7h6l3.6 5.2 3.6-5.2h6l-7.1 10v9.2h-5V17l-7.1-10zM486.3 11.9c-.9-.8-2.1-1.3-3.3-1.3-.9 0-2.1.5-2.1 1.6s1.4 1.6 2.2 1.8l1.3.4c2.7.8 4.7 2.1 4.7 5.2 0 1.9-.5 3.9-2 5.2-1.5 1.3-3.5 1.8-5.5 1.8-2.4 0-4.8-.8-6.8-2.2l2.1-4c1.2 1.1 2.7 2 4.4 2 1.2 0 2.4-.6 2.4-1.9 0-1.4-2-1.9-3-2.2-3.1-.9-5.2-1.7-5.2-5.4 0-3.9 2.8-6.4 6.6-6.4 1.9 0 4.3.6 6 1.6l-1.8 3.8z" class="st0"/><g><path d="M522.8 13.3c-1.7 0-3.1 1.4-3.1 2.9 0 1.9 1.4 3.3 3.1 3.3s3.1-1.4 3.1-3.3c0-1.6-1.4-2.9-3.1-2.9z" class="st0"/><path d="M584.1 0h-78.2v31.6h78.2l-11.3-15.8L584.1 0zm-61.3 22.2c-3.5 0-6.1-2.5-6.1-6.1 0-3.3 2.9-5.7 6.1-5.7s6.1 2.3 6.1 5.7c0 3.6-2.6 6.1-6.1 6.1zm16.7-8.9H536v1.8h3.1v2.4H536v4.3h-2.9v-11h6.3v2.5z" class="st0"/></g><g><path d="M563.1 49.3v-.8c7.8.1 13.4 1.8 20.1.3l.7 19.6-.5.1c-4.5-10.1-9.9-19.2-20.1-19.2h-.2z" class="st0"/><path d="M563.1 48.5v.8c-7.4.1-9.5 4.8-9.5 8.4 0 14.1 33.6 8.3 33.6 31 0 12.9-10.9 19.3-26.7 19.3h-1v-.8c9.5 0 11.1-5.6 11.1-8.8 0-15.1-33.3-8.8-33.3-31.5 0-12.1 9.4-18.4 24.6-18.4h1.2z" class="st0"/><path d="M559.6 107.2v.8c-7.4-.1-16.3-1.5-21.6-2.6l-.6-18.1.6-.1c5 10.5 9.2 20 21.6 20zM533.7 97.1c-3.8 5.4-8.4 10.7-18 10.7-8.4 0-13.3-4.2-15.4-9.5-.5.7-1 1.3-1.6 2l-.7-.7c.4-.4.7-.8 1.1-1.3V78.9l-2.4-.6.2-1c.8.2 1.5.3 2.2.5V63.5c0-7.8-1.6-14.4-10.5-14.4v-.7h1.2c14.3 0 30.9 5.7 30.9 22v29.1c0 2.6 1.4 3.8 3.5 3.8 3.4 0 6.5-3.4 8.7-6.7l.8.5z" class="st0"/><path d="M498.8 100.3c-3.7 4.2-9.4 7.7-18.4 7.7-11.8 0-20-6-20-16.1 0-8.6 6-13.2 14.5-15 2.9-.6 6.1-.9 9.4-.9 4.2 0 8.8.5 12.6 1.3l-.2 1c-1.4-.3-2.8-.5-4.1-.5-7.1 0-10.1 4.9-10.1 13.1 0 6.7 2 12.7 7.9 12.7 2.5 0 5.1-1.2 7.6-3.9l.8.6zM488.7 49.1c-5.7 0-9.2 2.9-11.6 6 3.7 1.8 6 5.7 6 9.7 0 5-3.7 9.1-8.7 9.8-.5.1-1 .1-1.6.1-6.4 0-9.8-5.3-9.8-10.2 0-8.7 10.3-15.7 25.7-16v.6zM421.5 55.3c-3.7 0-6.8 2.4-9.2 4.9l-.5-.5c5.5-5.9 12.4-11.2 21.4-11.2 9 0 16.3 5.3 16.3 18.6v27.2c0 6.8.8 11.4 8.2 11.4v.8h-35.9v-.8c5.7 0 6.8-4.6 6.8-11.4V64.6c0-6.6-3-9.3-7.1-9.3z" class="st0"/><path d="M412.3 60.2l-.5.5c.4 1.9.7 3.9.7 6.4v27.2c0 6.8.5 11.4 7.3 11.4v.8h-35.1v-.8c5.7 0 6.8-4.6 6.8-11.4V64.6c0-6.7-3-9.4-7.1-9.4-3.5 0-6.5 2.3-9 4.8l-.6-.5c5.4-5.8 12.3-11 21.2-11 7.1 0 13.2 3.4 15.4 11.4l.2-.2.7.5z" class="st0"/><path d="M375.6 60v34.3c0 6.8 1.1 11.4 6.8 11.4v.8h-35.9v-.8c7.3 0 8.2-4.6 8.2-11.4V63.4c0-6.8-.8-11.4-8.2-11.4v-.8l28.4-2.7v11.2l.1-.1.6.4zM318.4 48.5c7.8.1 13.4 1.8 20.1.3l.7 19.6-.5.1c-4.5-10.1-9.9-19.2-20.1-19.2h-.1l-.1-.8z" class="st0"/><path d="M318.4 48.5v.8c-7.4.1-9.5 4.8-9.5 8.4 0 14.1 33.6 8.3 33.6 31 0 12.9-10.9 19.3-26.6 19.3h-1v-.8c9.5 0 11.2-5.6 11.2-8.8 0-15.1-33.3-8.8-33.3-31.5 0-12.1 9.4-18.4 24.6-18.4h1z" class="st0"/><path d="M314.9 107.2v.8c-7.4-.1-16.3-1.5-21.6-2.6l-.5-18.1.5-.1c5 10.5 9.2 20 21.6 20zM283.5 17.1c14.5 1.4 19.9 10.5 19.9 16.9 0 6.1-4.9 10.3-10.2 10.3-5.6 0-10.1-4.6-10.1-10.5 0-4.9 3.1-9 7.6-10.2-1.3-3.4-3.6-5.7-7.3-6l.1-.5z" class="st0"/><path d="M279.7 16.9c1.3 0 2.6.1 3.8.2l-.1.7h-.8c-5.6 0-9.6 4.4-9.6 13.3V50h15.6v1.9H273v42c0 10.1 5.6 11.8 12.9 11.8v.8h-45.4v-.8c7.3 0 10.9-3.7 10.9-11.8v-42h-11.3V50h11.3v-8.2c0-16.3 12.4-24.9 28.3-24.9zM236.3 105.7v.8h-37.9v-.8c7.3 0 8.2-4.6 8.2-11.4V63.4c0-6.8-.8-11.4-8.2-11.4v-.8l29.8-2.7v45.8c-.1 6.8.7 11.4 8.1 11.4zM229.6 29.7c0 7.1-5.6 12-12.5 12s-12.5-4.9-12.5-12c0-6.9 5.6-11.8 12.5-11.8 7 0 12.5 4.9 12.5 11.8zM152.7 20.9c22 .9 34.8 11.7 34.8 22.1 0 5.6-3.7 12.4-11.1 12.4-6.5 0-11.6-5.2-11.6-11.8 0-5.6 3.4-10.1 8.3-11.4-3.7-5.7-10.8-10.1-20.4-10.3v-1z" class="st0"/><path d="M148.8 107.3c5.4 0 10.9-1.4 16.2-3.8V81.4c0-11.2-2.9-14.8-11.8-14.8v-.8h45.3v.8c-8.4 0-10.9 2.7-10.9 13.9v34.8c0 15.4-17.7 24.9-35.6 29.2l-.3-.4c13.1-6.9 13.3-15.4 13.3-24.9V107c-5.3.8-10.8 1.2-16.2 1.2v-.9z" class="st0"/><path d="M149.9 20.9c1 0 1.9 0 2.9.1v.9h-.9c-21.4 0-30.2 20.4-30.2 44.6 0 20.3 6.3 40.9 27.2 40.9v.8h-.6c-34.8 0-51.9-18.1-51.9-42.1-.1-29.3 25.3-45.2 53.5-45.2z" class="st0"/></g><g><path d="M7.2 65.7c0-15.9 12.9-28.8 28.8-28.8s28.8 12.9 28.8 28.8S51.9 94.5 36 94.5 7.2 81.6 7.2 65.7zm-7.2 0c0-19.9 16.1-36 36-36s36 16.1 36 36-16.1 36-36 36-36-16.1-36-36z" class="st1fillhere"/><path d="M25.8 48.3l4.3 7.4c-2.6 1.5-4.5 3.9-5.3 6.8h22.3c-.8-2.9-2.8-5.4-5.4-6.9l4.2-7.4c6.1 3.5 10.2 10 10.2 17.5S52 79.7 46 83.2l-4.2-7.4c2.6-1.5 4.5-3.9 5.4-6.8H24.8c.8 2.9 2.8 5.3 5.3 6.8l-4.3 7.4c-6-3.5-10-10-10-17.4 0-7.5 4-14 10-17.5z" class="st0whiteout"/></g></svg>
