<?xml version="1.0" encoding="utf-8"?>
<!-- Generator: Adobe Illustrator 19.0.0, SVG Export Plug-In . SVG Version: 6.00 Build 0)  -->
<svg version="1.1" xmlns="http://www.w3.org/2000/svg" xmlns:xlink="http://www.w3.org/1999/xlink" x="0px" y="0px"
	 viewBox="0 0 587.2 144.4" style="enable-background:new 0 0 587.2 144.4;" xml:space="preserve">
<style type="text/css">
	.st0{fill:#FF0000;}
	.st1{fill-rule:evenodd;clip-rule:evenodd;fill:#FF0000;}
</style>
<g id="XMLID_1_">
	<g id="XMLID_18_">
		<path id="XMLID_16_" class="st0" d="M348.3,0v30.6h7.6v1h-7.6h-16.1h-7.6v-1h7.6V9.1c-2.1,0.4-4.3,0.6-6.6,0.6h-1V8.9h1
			c2.8,0,5.6-0.4,8.3-1.2c1.2-0.4,2.9-1,5-1.9c3.1-1.4,5.9-3.4,8.3-5.8H348.3z"/>
		<path id="XMLID_19_" class="st0" d="M390,25c0,0.9-0.1,1.8-0.4,2.6c-0.3,0.8-0.7,1.6-1.3,2.2c-0.6,0.7-1.2,1.2-2,1.6
			c-0.8,0.4-1.7,0.6-2.6,0.6c-2,0-3.8-0.3-5.6-0.8c-1.8-0.6-3.4-1.2-5.1-1.8c-1.6-0.7-3.2-1.3-4.8-1.9c-1.5-0.6-3.1-0.9-4.6-0.9
			c-1.1,0-2.1,0.5-2.8,1.4c-0.7,0.9-1.1,2.2-1.1,4h-1V21.7c0-1.4,0.4-2.5,1.2-3.2c0.8-0.7,1.8-1.2,3-1.6c1.2-0.4,2.5-0.6,3.9-0.9
			c1.4-0.2,2.7-0.5,3.9-1c1.2-0.4,2.2-1.1,3-2c0.8-0.9,1.2-2.2,1.2-3.9c0-1-0.2-1.9-0.6-2.7c-0.4-0.8-0.9-1.6-1.5-2.2
			c-0.6-0.6-1.4-1.1-2.1-1.4c-0.8-0.3-1.6-0.5-2.3-0.5c-0.6,0-1.1,0-1.5,0c-0.4,0-0.7,0-1,0.1c-0.3,0-0.5,0.1-0.6,0.1
			c0.8,0,1.6,0.1,2.4,0.4c0.8,0.3,1.5,0.7,2,1.3c0.6,0.6,1.1,1.3,1.4,2.1c0.4,0.8,0.5,1.8,0.5,2.8c0,1-0.2,1.9-0.6,2.7
			c-0.4,0.8-0.9,1.5-1.5,2c-0.6,0.6-1.3,1-2.1,1.2c-0.8,0.3-1.5,0.4-2.2,0.4c-0.7,0-1.5-0.1-2.2-0.4c-0.8-0.3-1.4-0.7-2.1-1.3
			c-0.6-0.6-1.1-1.2-1.5-2s-0.6-1.7-0.6-2.7c0-1.1,0.2-2.2,0.7-3.3c0.5-1.1,1.3-2,2.5-2.8c1.2-0.8,2.8-1.4,4.8-1.9
			c2-0.5,4.6-0.7,7.7-0.7c3.1,0,5.7,0.2,7.7,0.5c2,0.4,3.6,0.9,4.8,1.6c1.2,0.7,2,1.6,2.5,2.7c0.5,1.1,0.7,2.4,0.7,3.8
			c0,1.9-0.4,3.3-1.3,4.4c-0.8,1.1-2,1.8-3.5,2.4c-1.5,0.5-3.2,0.8-5.2,1c-2,0.1-4.1,0.2-6.4,0.2c-3.4,0-6.1,0.1-7.9,0.4
			c-1.9,0.3-3.3,0.7-4.1,1.1c-0.9,0.4-1.4,0.9-1.5,1.4c-0.2,0.5-0.2,1-0.2,1.4c0-0.3,0.1-0.7,0.4-1.1c0.3-0.4,1-0.8,2-1.1
			c1.1-0.4,2.6-0.7,4.7-0.9c2-0.3,4.8-0.4,8.3-0.4c3.1,0,5.7-0.1,7.6-0.4c1.9-0.2,3.4-0.5,4.4-0.9c1-0.3,1.7-0.6,2.1-1
			c0.3-0.3,0.5-0.6,0.6-0.7V25z"/>
	</g>
	<g id="XMLID_20_">
		<path id="XMLID_5_" class="st0" d="M408,7h7.1c5.4,0,9.8,4.2,9.8,9.6c0,5.4-4.4,9.6-9.8,9.6H408V7z M413,22h1.1
			c3,0,5.5-1.6,5.5-5.4c0-3.4-2.3-5.4-5.5-5.4H413V22z"/>
		<path id="XMLID_9_" class="st0" d="M436,22.9l-1.3,3.3h-5.3L436.8,7h5.5l7.2,19.2h-5.3l-1.2-3.3H436z M439.5,12.9L439.5,12.9
			l-2.1,6.1h4.2L439.5,12.9z"/>
		<path id="XMLID_12_" class="st0" d="M451.4,7h6l3.6,5.2l3.6-5.2h6l-7.1,10v9.2h-5V17L451.4,7z"/>
		<path id="XMLID_14_" class="st0" d="M486.3,11.9c-0.9-0.8-2.1-1.3-3.3-1.3c-0.9,0-2.1,0.5-2.1,1.6c0,1.1,1.4,1.6,2.2,1.8l1.3,0.4
			c2.7,0.8,4.7,2.1,4.7,5.2c0,1.9-0.5,3.9-2,5.2c-1.5,1.3-3.5,1.8-5.5,1.8c-2.4,0-4.8-0.8-6.8-2.2l2.1-4c1.2,1.1,2.7,2,4.4,2
			c1.2,0,2.4-0.6,2.4-1.9c0-1.4-2-1.9-3-2.2c-3.1-0.9-5.2-1.7-5.2-5.4c0-3.9,2.8-6.4,6.6-6.4c1.9,0,4.3,0.6,6,1.6L486.3,11.9z"/>
	</g>
	<g id="XMLID_2_">
		<g id="XMLID_77_">
			<path class="st0" d="M522.8,13.3c-1.7,0-3.1,1.4-3.1,2.9c0,1.9,1.4,3.3,3.1,3.3s3.1-1.4,3.1-3.3
				C525.9,14.6,524.5,13.3,522.8,13.3z"/>
		</g>
		<g id="XMLID_80_">
			<path class="st0" d="M584.1,0h-78.2v31.6h78.2l-11.3-15.8L584.1,0z M522.8,22.2c-3.5,0-6.1-2.5-6.1-6.1c0-3.3,2.9-5.7,6.1-5.7
				s6.1,2.3,6.1,5.7C528.9,19.7,526.3,22.2,522.8,22.2z M539.5,13.3H536v1.8h3.1v2.4H536v4.3h-2.9v-11h6.3V13.3z"/>
		</g>
	</g>
	<g id="XMLID_3_">
		<g id="XMLID_6_">
			<g id="XMLID_31_">
				<path id="XMLID_53_" class="st0" d="M563.1,49.3l0-0.8c7.8,0.1,13.4,1.8,20.1,0.3l0.7,19.6l-0.5,0.1
					c-4.5-10.1-9.9-19.2-20.1-19.2C563.2,49.3,563.1,49.3,563.1,49.3z"/>
				<path id="XMLID_52_" class="st0" d="M563.1,48.5l0,0.8c-7.4,0.1-9.5,4.8-9.5,8.4c0,14.1,33.6,8.3,33.6,31
					c0,12.9-10.9,19.3-26.7,19.3c-0.3,0-0.6,0-1,0l0-0.8c9.5,0,11.1-5.6,11.1-8.8c0-15.1-33.3-8.8-33.3-31.5
					c0-12.1,9.4-18.4,24.6-18.4C562.4,48.5,562.7,48.5,563.1,48.5z"/>
				<path id="XMLID_51_" class="st0" d="M559.6,107.2l0,0.8c-7.4-0.1-16.3-1.5-21.6-2.6l-0.6-18.1l0.6-0.1
					C543,97.7,547.2,107.2,559.6,107.2z"/>
				<path id="XMLID_50_" class="st0" d="M533.7,97.1c-3.8,5.4-8.4,10.7-18,10.7c-8.4,0-13.3-4.2-15.4-9.5c-0.5,0.7-1,1.3-1.6,2
					l-0.7-0.7c0.4-0.4,0.7-0.8,1.1-1.3V78.9c-0.8-0.2-1.6-0.4-2.4-0.6l0.2-1c0.8,0.2,1.5,0.3,2.2,0.5V63.5c0-7.8-1.6-14.4-10.5-14.4
					l0-0.7c0.4,0,0.8,0,1.2,0c14.3,0,30.9,5.7,30.9,22v29.1c0,2.6,1.4,3.8,3.5,3.8c3.4,0,6.5-3.4,8.7-6.7L533.7,97.1z"/>
				<path id="XMLID_49_" class="st0" d="M498.8,100.3c-3.7,4.2-9.4,7.7-18.4,7.7c-11.8,0-20-6-20-16.1c0-8.6,6-13.2,14.5-15
					c2.9-0.6,6.1-0.9,9.4-0.9c4.2,0,8.8,0.5,12.6,1.3l-0.2,1c-1.4-0.3-2.8-0.5-4.1-0.5c-7.1,0-10.1,4.9-10.1,13.1
					c0,6.7,2,12.7,7.9,12.7c2.5,0,5.1-1.2,7.6-3.9L498.8,100.3z"/>
				<path id="XMLID_48_" class="st0" d="M488.7,49.1c-5.7,0-9.2,2.9-11.6,6c3.7,1.8,6,5.7,6,9.7c0,5-3.7,9.1-8.7,9.8
					c-0.5,0.1-1,0.1-1.6,0.1c-6.4,0-9.8-5.3-9.8-10.2c0-8.7,10.3-15.7,25.7-16L488.7,49.1z"/>
				<path id="XMLID_47_" class="st0" d="M421.5,55.3c-3.7,0-6.8,2.4-9.2,4.9l-0.5-0.5c5.5-5.9,12.4-11.2,21.4-11.2
					c9,0,16.3,5.3,16.3,18.6v27.2c0,6.8,0.8,11.4,8.2,11.4v0.8h-35.9v-0.8c5.7,0,6.8-4.6,6.8-11.4V64.6
					C428.6,58,425.6,55.3,421.5,55.3z"/>
				<path id="XMLID_45_" class="st0" d="M412.3,60.2c-0.2,0.2-0.3,0.3-0.5,0.5c0.4,1.9,0.7,3.9,0.7,6.4v27.2
					c0,6.8,0.5,11.4,7.3,11.4v0.8h-35.1v-0.8c5.7,0,6.8-4.6,6.8-11.4V64.6c0-6.7-3-9.4-7.1-9.4c-3.5,0-6.5,2.3-9,4.8l-0.6-0.5
					c5.4-5.8,12.3-11,21.2-11c7.1,0,13.2,3.4,15.4,11.4c0.1-0.1,0.1-0.1,0.2-0.2L412.3,60.2z"/>
				<path id="XMLID_44_" class="st0" d="M375.6,60v34.3c0,6.8,1.1,11.4,6.8,11.4v0.8h-35.9v-0.8c7.3,0,8.2-4.6,8.2-11.4V63.4
					c0-6.8-0.8-11.4-8.2-11.4v-0.8l28.4-2.7v11.2c0,0,0.1-0.1,0.1-0.1L375.6,60z"/>
				<path id="XMLID_43_" class="st0" d="M318.4,48.5c7.8,0.1,13.4,1.8,20.1,0.3l0.7,19.6l-0.5,0.1c-4.5-10.1-9.9-19.2-20.1-19.2
					c0,0-0.1,0-0.1,0L318.4,48.5z"/>
				<path id="XMLID_42_" class="st0" d="M318.4,48.5l0,0.8c-7.4,0.1-9.5,4.8-9.5,8.4c0,14.1,33.6,8.3,33.6,31
					c0,12.9-10.9,19.3-26.6,19.3c-0.3,0-0.6,0-1,0l0-0.8c9.5,0,11.2-5.6,11.2-8.8c0-15.1-33.3-8.8-33.3-31.5
					c0-12.1,9.4-18.4,24.6-18.4C317.7,48.5,318.1,48.5,318.4,48.5z"/>
				<path id="XMLID_41_" class="st0" d="M314.9,107.2l0,0.8c-7.4-0.1-16.3-1.5-21.6-2.6l-0.5-18.1l0.5-0.1
					C298.3,97.7,302.5,107.2,314.9,107.2z"/>
				<path id="XMLID_40_" class="st0" d="M283.5,17.1c14.5,1.4,19.9,10.5,19.9,16.9c0,6.1-4.9,10.3-10.2,10.3
					c-5.6,0-10.1-4.6-10.1-10.5c0-4.9,3.1-9,7.6-10.2c-1.3-3.4-3.6-5.7-7.3-6L283.5,17.1z"/>
				<path id="XMLID_39_" class="st0" d="M279.7,16.9c1.3,0,2.6,0.1,3.8,0.2l-0.1,0.7c-0.2,0-0.5,0-0.8,0c-5.6,0-9.6,4.4-9.6,13.3V50
					h15.6v1.9h-15.6v42c0,10.1,5.6,11.8,12.9,11.8v0.8h-45.4v-0.8c7.3,0,10.9-3.7,10.9-11.8v-42h-11.3V50h11.3v-8.2
					C251.4,25.5,263.8,16.9,279.7,16.9z"/>
				<path id="XMLID_38_" class="st0" d="M236.3,105.7v0.8h-37.9v-0.8c7.3,0,8.2-4.6,8.2-11.4V63.4c0-6.8-0.8-11.4-8.2-11.4v-0.8
					l29.8-2.7v45.8C228.1,101.1,228.9,105.7,236.3,105.7z"/>
				<path id="XMLID_37_" class="st0" d="M229.6,29.7c0,7.1-5.6,12-12.5,12c-6.9,0-12.5-4.9-12.5-12c0-6.9,5.6-11.8,12.5-11.8
					C224.1,17.9,229.6,22.8,229.6,29.7z"/>
				<path id="XMLID_36_" class="st0" d="M152.7,20.9c22,0.9,34.8,11.7,34.8,22.1c0,5.6-3.7,12.4-11.1,12.4
					c-6.5,0-11.6-5.2-11.6-11.8c0-5.6,3.4-10.1,8.3-11.4c-3.7-5.7-10.8-10.1-20.4-10.3L152.7,20.9z"/>
				<path id="XMLID_35_" class="st0" d="M148.8,107.3c5.4,0,10.9-1.4,16.2-3.8V81.4c0-11.2-2.9-14.8-11.8-14.8v-0.8h45.3v0.8
					c-8.4,0-10.9,2.7-10.9,13.9v34.8c0,15.4-17.7,24.9-35.6,29.2l-0.3-0.4c13.1-6.9,13.3-15.4,13.3-24.9v-12.2
					c-5.3,0.8-10.8,1.2-16.2,1.2L148.8,107.3z"/>
				<path id="XMLID_32_" class="st0" d="M149.9,20.9c1,0,1.9,0,2.9,0.1l0,0.9c-0.3,0-0.6,0-0.9,0c-21.4,0-30.2,20.4-30.2,44.6
					c0,20.3,6.3,40.9,27.2,40.9l0,0.8c-0.2,0-0.4,0-0.6,0c-34.8,0-51.9-18.1-51.9-42.1C96.3,36.8,121.7,20.9,149.9,20.9z"/>
			</g>
		</g>
	</g>
	<g id="XMLID_23_">
		<path id="XMLID_26_" class="st1" d="M7.2,65.7c0-15.9,12.9-28.8,28.8-28.8c15.9,0,28.8,12.9,28.8,28.8c0,15.9-12.9,28.8-28.8,28.8
			C20.1,94.5,7.2,81.6,7.2,65.7z M0,65.7c0-19.9,16.1-36,36-36c19.9,0,36,16.1,36,36c0,19.9-16.1,36-36,36C16.1,101.7,0,85.6,0,65.7
			z"/>
		<g id="XMLID_24_">
			<path id="XMLID_25_" class="st0" d="M25.8,48.3l4.3,7.4c-2.6,1.5-4.5,3.9-5.3,6.8h22.3c-0.8-2.9-2.8-5.4-5.4-6.9l4.2-7.4
				c6.1,3.5,10.2,10,10.2,17.5c0,7.5-4.1,14-10.1,17.5l-4.2-7.4c2.6-1.5,4.5-3.9,5.4-6.8H24.8c0.8,2.9,2.8,5.3,5.3,6.8l-4.3,7.4
				c-6-3.5-10-10-10-17.4C15.8,58.3,19.8,51.8,25.8,48.3z"/>
		</g>
	</g>
</g>
</svg>
