<?xml version="1.0" encoding="utf-8"?>
<!-- Generator: Adobe Illustrator 19.0.0, SVG Export Plug-In . SVG Version: 6.00 Build 0)  -->
<svg version="1.1" xmlns="http://www.w3.org/2000/svg" xmlns:xlink="http://www.w3.org/1999/xlink" x="0px" y="0px"
	 viewBox="-55 147 500 500" style="enable-background:new -55 147 500 500;" xml:space="preserve">
<style type="text/css">
	.st0pin{fill:#CB2128;}
</style>
<g>
	<path class="st0pin" d="M195,147C56.9,147-55,258.9-55,397c0,102.4,61.6,190.3,149.6,229c-0.7-17.5-0.1-38.4,4.4-57.4
		c4.8-20.3,32.2-136.2,32.2-136.2s-8-16-8-39.6c0-37,21.5-64.7,48.2-64.7c22.7,0,33.7,17.1,33.7,37.5c0,22.9-14.6,57.1-22.1,88.7
		c-6.3,26.5,13.3,48.1,39.5,48.1c47.4,0,79.3-60.8,79.3-132.9c0-54.8-36.9-95.8-104-95.8c-75.8,0-123.1,56.6-123.1,119.7
		c0,21.8,6.4,37.1,16.5,49c4.6,5.5,5.3,7.7,3.6,13.9c-1.2,4.6-4,15.7-5.1,20.1c-1.7,6.3-6.8,8.6-12.5,6.3
		c-34.9-14.3-51.2-52.5-51.2-95.5c0-71,59.9-156.2,178.7-156.2c95.4,0,158.3,69.1,158.3,143.2c0,98.1-54.5,171.3-134.9,171.3
		c-27,0-52.4-14.6-61.1-31.2c0,0-14.5,57.6-17.6,68.7c-5.3,19.3-15.7,38.5-25.2,53.6c22.5,6.6,46.2,10.3,70.9,10.3
		c138.1,0,250-111.9,250-250C445,258.9,333.1,147,195,147z"/>
</g>
</svg>
