<?xml version="1.0" encoding="utf-8"?>
<!-- Generator: Adobe Illustrator 18.1.1, SVG Export Plug-In . SVG Version: 6.00 Build 0)  -->
<svg version="1.1" xmlns="http://www.w3.org/2000/svg" xmlns:xlink="http://www.w3.org/1999/xlink" x="0px" y="0px"
	 viewBox="0 0 500 500" enable-background="new 0 0 500 500" xml:space="preserve">
<path d="M50,50v22.2v24v307.6v24V450h37l0-0.2h9.1h167.5H326h77.9h8.1l0,0.2h38v-22.2v-24V96.4V50H50z M326.9,250.1
	c0,42.4-34.5,76.9-76.9,76.9c-42.4,0-76.9-34.5-76.9-76.9c0-42.4,34.5-76.9,76.9-76.9C292.4,173.2,326.9,207.7,326.9,250.1z
	 M403.7,388.5c0,8.5-6.9,15.4-15.4,15.4H111.6c-8.6,0-15.5-6.9-15.5-15.4V219.4h34.8c-2.5,9.9-4,20.1-4,30.7c0,68,55.1,123,123,123
	c68,0,123-55.1,123-123c0-10.6-1.5-21-4-30.7h34.8V388.5z M403.7,157.9c0,8.5-6.9,15.4-15.4,15.4h-46.1c-8.5,0-15.4-6.9-15.4-15.4
	v-46.1c0-8.5,6.9-15.4,15.4-15.4h46.1c8.5,0,15.4,6.9,15.4,15.4V157.9z"/>
</svg>
