<?xml version="1.0" encoding="utf-8"?>
<!-- Generator: Adobe Illustrator 19.0.0, SVG Export Plug-In . SVG Version: 6.00 Build 0)  -->
<svg version="1.1" id="White" xmlns="http://www.w3.org/2000/svg" xmlns:xlink="http://www.w3.org/1999/xlink" x="0px" y="0px"
	 viewBox="-55 147 500 500" style="enable-background:new -55 147 500 500;" xml:space="preserve">
<style type="text/css">
	.st0twit{fill:#5EA9DD;}
</style>
<path class="st0twit" d="M393.8,295.1c0.3,4.3,0.3,8.9,0.3,13.3c0,135.6-103.2,291.8-291.8,291.8C44.4,600.1-9.6,583-55,554
	c7.9,1,16.3,1.5,24.5,1.5c48.2,0,92.3-16.3,127.4-43.8c-44.9-0.8-82.8-30.6-95.8-71.4c6.4,1.3,12.7,1.8,19.4,1.8
	c9.4,0,18.3-1.3,27-3.6c-46.9-9.4-82.3-51-82.3-100.7c0-0.5,0-0.8,0-1.3c13.8,7.6,29.6,12.2,46.4,12.7C-16,331-34.1,299.7-34.1,264
	c0-18.9,5.1-36.4,13.8-51.5c50.7,61.9,126.1,103,211.5,107.3c-1.8-7.4-2.5-15.3-2.5-23.4c0-56.6,45.9-102.4,102.4-102.4
	c29.6,0,56.1,12.5,74.9,32.4c23.4-4.6,45.4-13.3,65.2-25c-7.6,24-24,44.1-45.1,56.8c20.6-2.5,40.5-7.9,58.9-16.1
	C431.2,262.7,413.9,280.8,393.8,295.1z"/>
</svg>
