<?xml version="1.0" encoding="utf-8"?>
<!-- Generator: Adobe Illustrator 19.0.0, SVG Export Plug-In . SVG Version: 6.00 Build 0)  -->
<svg version="1.1" id="White" xmlns="http://www.w3.org/2000/svg" xmlns:xlink="http://www.w3.org/1999/xlink" x="0px" y="0px"
	 viewBox="-55 147 500 500" style="enable-background:new -55 147 500 500;" xml:space="preserve">
<style type="text/css">
	.st0{fill:#35465D;}
</style>
<path class="st0" d="M-5,197v400h400V197H-5z M226.8,514c-54.3,0.9-74.9-38.7-74.9-66.6v-81.5h-25.2v-32.2
	c37.8-13.6,46.9-47.8,49.1-67.2c0.1-1.3,1.2-1.9,1.8-1.9c0.6,0,36.5,0,36.5,0v63.6H264v37.8h-50.1v77.7c0.2,10.6,4,25.1,24,24.6
	c6.6-0.2,15.5-2.1,20.1-4.3l12,35.6C265.5,506,245.1,513.7,226.8,514z"/>
</svg>
