<svg xmlns="http://www.w3.org/2000/svg" id="Layer_1" viewBox="-241 233.8 129.1 65"><path d="M-192.8 233.8v62.1h15.5v2.1H-241v-2.1h15.5v-43.6c-4.2.8-8.7 1.3-13.4 1.3h-2.1v-1.7h2.1c5.7 0 11.3-.8 16.8-2.5 2.5-.8 5.9-2.1 10.1-3.8 6.3-2.9 11.9-6.9 16.8-11.7h2.4v-.1zm48.5.8c6.1 0 11.2.8 15.3 2.5 4.1 1.7 7.4 3.9 10 6.8 2.5 2.9 4.3 6.2 5.4 10.1 1.1 3.9 1.6 8 1.6 12.4 0 4.6-.4 8.8-1.3 12.7-.8 3.9-2.4 7.3-4.8 10.2-2.4 2.9-5.7 5.2-9.8 6.9s-9.6 2.5-16.4 2.5c-6.6 0-12-.8-16.2-2.5s-7.4-4-9.7-6.9c-2.4-2.9-3.9-6.3-4.8-10.2s-1.3-8.1-1.3-12.7c0-4.4.6-8.5 1.6-12.4 1.1-3.9 2.9-7.2 5.4-10.1 2.5-2.9 5.8-5.1 9.8-6.8 4.2-1.6 9.2-2.5 15.2-2.5zm1.2 2.1h-2.1v60h2.1v-60z" class="st0"/></svg>