<?xml version="1.0" encoding="utf-8"?>
<!-- Generator: Adobe Illustrator 19.0.0, SVG Export Plug-In . SVG Version: 6.00 Build 0)  -->
<svg version="1.1" id="Layer_1" xmlns="http://www.w3.org/2000/svg" xmlns:xlink="http://www.w3.org/1999/xlink" x="0px" y="0px"
	 viewBox="0 0 500 500" style="enable-background:new 0 0 500 500;" xml:space="preserve">
<style type="text/css">
	.st0{fill:#FFFFFF;}
</style>
<g id="XMLID_45_">
	<path id="XMLID_46_" class="st0" d="M196.8,143.7v203h50.8v6.9h-50.8h-107H39.1v-6.9h50.8V204c-13.7,2.7-28.4,4.1-43.9,4.1h-6.9
		v-5.5H46c18.7,0,37-2.7,54.9-8.2c8.2-2.7,19.2-6.9,32.9-12.3c20.6-9.6,38.9-22.4,54.9-38.4H196.8z"/>
	<path id="XMLID_48_" class="st0" d="M355.3,146.4c19.9,0,36.6,2.7,50.1,8.2c13.5,5.5,24.3,12.9,32.6,22.3
		c8.2,9.4,14.1,20.4,17.7,33.1c3.5,12.7,5.3,26.2,5.3,40.6c0,14.9-1.4,28.7-4.1,41.5c-2.7,12.8-8,24-15.8,33.4
		c-7.8,9.5-18.5,17-32.2,22.5c-13.7,5.5-31.5,8.2-53.5,8.2c-21.7,0-39.3-2.7-52.8-8.2c-13.5-5.5-24.1-13-31.7-22.5
		c-7.7-9.5-12.9-20.6-15.6-33.4c-2.7-12.8-4.1-26.6-4.1-41.5c0-14.4,1.8-27.9,5.3-40.6c3.5-12.7,9.4-23.7,17.5-33.1
		c8.1-9.4,18.8-16.8,32.1-22.3C319.2,149.2,335.6,146.4,355.3,146.4z M359.4,153.3h-6.9v196.2h6.9V153.3z"/>
</g>
</svg>
