<svg xmlns="http://www.w3.org/2000/svg" id="Layer_1" viewBox="-246 233.8 138.9 65"><path id="XMLID_56_" d="M-194.8 233.8v62.1h15.5v2.1H-243v-2.1h15.5v-43.6c-4.2.8-8.7 1.3-13.4 1.3h-2.1v-1.7h2.1c5.7 0 11.3-.8 16.8-2.5 2.5-.8 5.9-2.1 10.1-3.8 6.3-2.9 11.9-6.9 16.8-11.7h2.4v-.1zm84.8 50.8c0 1.8-.3 3.6-.9 5.2-.6 1.7-1.5 3.2-2.6 4.6-1.2 1.4-2.5 2.4-4.1 3.2-1.6.8-3.4 1.2-5.4 1.2-4 0-7.8-.6-11.3-1.7-3.6-1.1-7-2.4-10.3-3.7-3.3-1.4-6.5-2.6-9.7-3.8-3.2-1.2-6.3-1.7-9.5-1.7-2.3 0-4.2.9-5.7 2.8s-2.3 4.6-2.3 8.1h-2.1v-21c0-2.9.8-5.1 2.4-6.5 1.6-1.4 3.6-2.5 6.1-3.2 2.4-.7 5.1-1.3 7.9-1.7 2.8-.4 5.4-1.1 7.9-2 2.4-.9 4.5-2.3 6.1-4.1 1.6-1.8 2.4-4.5 2.4-8 0-2-.4-3.8-1.2-5.5-.8-1.7-1.9-3.2-3.2-4.4-1.3-1.2-2.8-2.2-4.3-2.9-1.6-.7-3.2-1-4.7-1-1.3 0-2.3 0-3.1.1-.8 0-1.4.1-1.9.2-.6.1-1 .2-1.3.2 1.7 0 3.3.3 4.9.8 1.6.6 3 1.4 4.1 2.6 1.2 1.2 2.1 2.6 2.9 4.3.7 1.7 1.1 3.6 1.1 5.8 0 2.1-.4 3.9-1.2 5.6-.8 1.6-1.8 3-3.1 4.1-1.3 1.1-2.7 2-4.2 2.5-1.5.6-3 .8-4.5.8s-3-.3-4.5-.9c-1.5-.6-2.9-1.5-4.2-2.6s-2.3-2.5-3.1-4.1c-.8-1.6-1.2-3.4-1.2-5.4 0-2.3.5-4.5 1.4-6.7s2.6-4 5-5.6c2.4-1.6 5.7-2.9 9.8-3.9 4.1-1 9.3-1.5 15.6-1.5s11.5.4 15.6 1.1c4.1.7 7.3 1.8 9.8 3.3s4.1 3.3 5.1 5.5 1.5 4.8 1.5 7.7c0 3.8-.9 6.7-2.6 8.9s-4.1 3.7-7.1 4.8c-3 1-6.5 1.7-10.6 1.9-4 .2-8.4.4-13 .4-6.9 0-12.3.3-16.1.9-3.8.6-6.6 1.3-8.4 2.3-1.8.9-2.8 1.9-3.2 2.9s-.5 1.9-.5 2.8c0-.6.3-1.3.9-2.1.6-.8 2-1.6 4.1-2.3 2.2-.7 5.3-1.4 9.5-1.9s9.8-.8 16.9-.8c6.4 0 11.5-.2 15.4-.7 3.9-.5 6.9-1.1 9-1.7 2.1-.7 3.5-1.3 4.2-1.9.7-.6 1.1-1.1 1.3-1.5l.2 20.2z" class="st0"/></svg>