<svg xmlns="http://www.w3.org/2000/svg" id="Layer_1" viewBox="-70 132 350 350"><g id="XMLID_12_"><path id="XMLID_13_" d="M209.3 365.3c0 5.9-1 11.7-2.9 17.1-1.9 5.5-4.8 10.5-8.6 14.9-3.8 4.5-8.3 8-13.5 10.6-5.3 2.6-11.1 3.9-17.5 3.9-13 0-25.4-1.8-37-5.5-11.7-3.7-22.9-7.7-33.6-12.2-10.8-4.5-21.3-8.6-31.5-12.3-10.3-3.8-20.6-5.7-30.9-5.7-7.5 0-13.8 3-18.7 9.1s-7.4 14.9-7.4 26.6H.8v-68.6c0-9.6 2.6-16.7 7.9-21.4 5.3-4.7 11.9-8.2 19.9-10.6s16.6-4.3 25.7-5.7C63.4 304.1 72 302 80 299s14.6-7.4 19.9-13.4c5.3-5.9 7.9-14.6 7.9-26.1 0-6.4-1.3-12.4-3.9-18-2.6-5.6-6.1-10.4-10.3-14.4s-9-7.1-14.2-9.4c-5.3-2.3-10.4-3.4-15.4-3.4-4.1 0-7.5.1-10.1.2-2.6.1-4.7.3-6.3.5-1.8.2-3.2.5-4.1.7 5.5 0 10.8.9 15.9 2.7 5.1 1.8 9.7 4.6 13.6 8.4 3.9 3.8 7 8.4 9.4 13.9s3.6 11.8 3.6 18.9c0 6.9-1.3 12.9-3.9 18.2-2.6 5.3-6 9.7-10.1 13.4-4.1 3.7-8.7 6.4-13.7 8.2s-9.9 2.7-14.7 2.7-9.7-1-14.7-2.9-9.6-4.8-13.7-8.6-7.5-8.2-10.1-13.4c-2.6-5.2-3.9-11-3.9-17.7 0-7.5 1.5-14.8 4.6-21.8s8.6-13.1 16.5-18.3c7.9-5.3 18.6-9.5 32.1-12.7s30.5-4.8 51.1-4.8 37.5 1.2 50.9 3.6c13.4 2.4 24 6 31.9 10.8s13.4 10.8 16.6 18 4.8 15.6 4.8 25.2c0 12.3-2.8 22-8.4 29s-13.3 12.2-23.2 15.6c-9.8 3.4-21.3 5.5-34.5 6.3-13.2.8-27.3 1.2-42.4 1.2-22.6 0-40.2 1-52.6 2.9-12.5 1.9-21.6 4.4-27.4 7.4-5.8 3-9.3 6.1-10.3 9.4s-1.5 6.3-1.5 9.1c0-2.1 1-4.4 2.9-7s6.5-5.1 13.6-7.5 17.4-4.5 31-6.2 32.1-2.6 55.4-2.6c20.8 0 37.5-.8 50.2-2.4s22.5-3.5 29.3-5.7c6.9-2.2 11.4-4.3 13.7-6.3 2.3-2.1 3.7-3.7 4.1-4.8v67.4h-.3z" class="st0"/></g></svg>