<?xml version="1.0" encoding="utf-8"?>
<!-- Generator: Adobe Illustrator 19.0.0, SVG Export Plug-In . SVG Version: 6.00 Build 0)  -->
<svg version="1.1" id="Layer_1" xmlns="http://www.w3.org/2000/svg" xmlns:xlink="http://www.w3.org/1999/xlink" x="0px" y="0px"
	 viewBox="0 0 500 500" style="enable-background:new 0 0 500 500;" xml:space="preserve">
<style type="text/css">
	.st0{fill:#FFFFFF;}
</style>
<g id="XMLID_12_">
	<path id="XMLID_13_" class="st0" d="M354.3,308.3c0,5.9-1,11.7-2.9,17.1c-1.9,5.5-4.8,10.5-8.6,14.9c-3.8,4.5-8.3,8-13.5,10.6
		c-5.3,2.6-11.1,3.9-17.5,3.9c-13,0-25.4-1.8-37-5.5c-11.7-3.7-22.9-7.7-33.6-12.2c-10.8-4.5-21.3-8.6-31.5-12.3
		c-10.3-3.8-20.6-5.7-30.9-5.7c-7.5,0-13.8,3-18.7,9.1c-4.9,6.1-7.4,14.9-7.4,26.6h-6.9v-68.6c0-9.6,2.6-16.7,7.9-21.4
		c5.3-4.7,11.9-8.2,19.9-10.6c8-2.4,16.6-4.3,25.7-5.7c9.1-1.4,17.7-3.5,25.7-6.5c8-3,14.6-7.4,19.9-13.4c5.3-5.9,7.9-14.6,7.9-26.1
		c0-6.4-1.3-12.4-3.9-18c-2.6-5.6-6.1-10.4-10.3-14.4c-4.2-4-9-7.1-14.2-9.4c-5.3-2.3-10.4-3.4-15.4-3.4c-4.1,0-7.5,0.1-10.1,0.2
		c-2.6,0.1-4.7,0.3-6.3,0.5c-1.8,0.2-3.2,0.5-4.1,0.7c5.5,0,10.8,0.9,15.9,2.7c5.1,1.8,9.7,4.6,13.6,8.4c3.9,3.8,7,8.4,9.4,13.9
		c2.4,5.5,3.6,11.8,3.6,18.9c0,6.9-1.3,12.9-3.9,18.2s-6,9.7-10.1,13.4c-4.1,3.7-8.7,6.4-13.7,8.2c-5,1.8-9.9,2.7-14.7,2.7
		c-4.8,0-9.7-1-14.7-2.9c-5-1.9-9.6-4.8-13.7-8.6c-4.1-3.8-7.5-8.2-10.1-13.4s-3.9-11-3.9-17.7c0-7.5,1.5-14.8,4.6-21.8
		c3.1-7,8.6-13.1,16.5-18.3c7.9-5.3,18.6-9.5,32.1-12.7c13.5-3.2,30.5-4.8,51.1-4.8c20.6,0,37.5,1.2,50.9,3.6
		c13.4,2.4,24,6,31.9,10.8s13.4,10.8,16.6,18c3.2,7.2,4.8,15.6,4.8,25.2c0,12.3-2.8,22-8.4,29c-5.6,7-13.3,12.2-23.2,15.6
		c-9.8,3.4-21.3,5.5-34.5,6.3c-13.2,0.8-27.3,1.2-42.4,1.2c-22.6,0-40.2,1-52.6,2.9c-12.5,1.9-21.6,4.4-27.4,7.4
		c-5.8,3-9.3,6.1-10.3,9.4c-1,3.3-1.5,6.3-1.5,9.1c0-2.1,1-4.4,2.9-7c1.9-2.6,6.5-5.1,13.6-7.5c7.1-2.4,17.4-4.5,31-6.2
		c13.6-1.7,32.1-2.6,55.4-2.6c20.8,0,37.5-0.8,50.2-2.4c12.7-1.6,22.5-3.5,29.3-5.7c6.9-2.2,11.4-4.3,13.7-6.3
		c2.3-2.1,3.7-3.7,4.1-4.8V308.3z"/>
</g>
</svg>
