<svg xmlns="http://www.w3.org/2000/svg" id="Layer_1" viewBox="-278.7 134 64.6 65"><g id="XMLID_12_"><path id="XMLID_13_" d="M-214.2 184.6c0 1.8-.3 3.6-.9 5.3-.6 1.7-1.5 3.3-2.7 4.6-1.2 1.4-2.6 2.5-4.2 3.3-1.6.8-3.4 1.2-5.4 1.2-4 0-7.9-.6-11.5-1.7-3.6-1.1-7.1-2.4-10.4-3.8-3.3-1.4-6.6-2.7-9.8-3.8-3.2-1.2-6.4-1.8-9.6-1.8-2.3 0-4.3.9-5.8 2.8s-2.3 4.6-2.3 8.2h-2.1v-21.2c0-3 .8-5.2 2.4-6.6 1.6-1.5 3.7-2.5 6.2-3.3 2.5-.7 5.1-1.3 8-1.8 2.8-.4 5.5-1.1 8-2 2.5-.9 4.5-2.3 6.2-4.1 1.6-1.8 2.4-4.5 2.4-8.1 0-2-.4-3.8-1.2-5.6-.8-1.7-1.9-3.2-3.2-4.5-1.3-1.2-2.8-2.2-4.4-2.9-1.6-.7-3.2-1.1-4.8-1.1-1.3 0-2.3 0-3.1.1s-1.5.1-2 .2c-.6.1-1 .2-1.3.2 1.7 0 3.3.3 4.9.8 1.6.6 3 1.4 4.2 2.6 1.2 1.2 2.2 2.6 2.9 4.3.7 1.7 1.1 3.7 1.1 5.9 0 2.1-.4 4-1.2 5.6-.8 1.6-1.9 3-3.1 4.1-1.3 1.1-2.7 2-4.2 2.5-1.5.6-3.1.8-4.6.8s-3-.3-4.6-.9c-1.5-.6-3-1.5-4.2-2.7s-2.3-2.5-3.1-4.1c-.8-1.6-1.2-3.4-1.2-5.5 0-2.3.5-4.6 1.4-6.8 1-2.2 2.7-4.1 5.1-5.7 2.4-1.6 5.8-2.9 9.9-3.9 4.2-1 9.4-1.5 15.8-1.5s11.6.4 15.8 1.1c4.1.7 7.4 1.9 9.9 3.3 2.4 1.5 4.1 3.3 5.1 5.6 1 2.2 1.5 4.8 1.5 7.8 0 3.8-.9 6.8-2.6 9-1.7 2.2-4.1 3.8-7.2 4.8-3 1.1-6.6 1.7-10.7 2-4.1.2-8.5.4-13.1.4-7 0-12.4.3-16.3.9-3.9.6-6.7 1.4-8.5 2.3-1.8.9-2.9 1.9-3.2 2.9-.3 1-.5 2-.5 2.8 0-.7.3-1.4.9-2.2s2-1.6 4.2-2.3 5.4-1.4 9.6-1.9 9.9-.8 17.2-.8c6.4 0 11.6-.2 15.5-.7s7-1.1 9.1-1.8c2.1-.7 3.5-1.3 4.2-2 .7-.7 1.1-1.1 1.3-1.5l.2 21.2z" class="st0"/></g></svg>