<?xml version="1.0" encoding="utf-8"?>
<!-- Generator: Adobe Illustrator 19.0.0, SVG Export Plug-In . SVG Version: 6.00 Build 0)  -->
<svg version="1.1" id="Layer_1" xmlns="http://www.w3.org/2000/svg" xmlns:xlink="http://www.w3.org/1999/xlink" x="0px" y="0px"
	 viewBox="0 0 500 500" style="enable-background:new 0 0 500 500;" xml:space="preserve">
<style type="text/css">
	.st0{fill:#FFFFFF;}
</style>
<g id="XMLID_15_">
	<path id="XMLID_16_" class="st0" d="M344.8,237.5c-6.3,5.8-17.3,9.8-33.1,11.8c13,3.4,23.4,8.7,31,15.8
		c7.7,7.1,11.5,17.8,11.5,32.2c0,9.6-1.6,18-4.8,25.2c-3.2,7.2-8.7,13.2-16.6,18c-7.9,4.8-18.5,8.4-31.9,10.8
		c-13.4,2.4-30.3,3.6-50.9,3.6s-37.6-1.6-51.1-4.8c-13.5-3.2-24.2-7.4-32.1-12.7c-7.9-5.3-13.4-11.4-16.5-18.3
		c-3.1-7-4.6-14.2-4.6-21.8c0-6.4,1.3-12.2,3.9-17.5c2.6-5.3,6-9.8,10.1-13.5c4.1-3.8,8.7-6.6,13.7-8.6c5-1.9,9.9-2.9,14.7-2.9
		c4.8,0,9.7,0.9,14.7,2.7c5,1.8,9.6,4.6,13.7,8.2c4.1,3.7,7.5,8.1,10.1,13.4c2.6,5.3,3.9,11.3,3.9,18.2c0,7.3-1.2,13.7-3.6,19
		c-2.4,5.4-5.5,9.9-9.4,13.7c-3.9,3.8-8.4,6.6-13.5,8.4c-5.1,1.8-10.5,2.7-15.9,2.7c0.9,0.2,2.3,0.5,4.1,0.7
		c1.6,0.2,3.7,0.4,6.3,0.5c2.6,0.1,6,0.2,10.1,0.2c5,0,10.2-1.1,15.4-3.4c5.3-2.3,10-5.4,14.2-9.4c4.2-4,7.7-8.7,10.3-14.2
		c2.6-5.5,3.9-11.5,3.9-18.2c0-7.8-1.4-14.3-4.1-19.7c-2.7-5.4-6.3-9.8-10.8-13.2c-4.5-3.4-9.5-6.1-15.3-7.9
		c-5.7-1.8-11.7-3.3-17.8-4.5v-6.9h49.4c22.6,0,40.1-1,52.5-2.9c12.3-1.9,21.4-4.4,27.3-7.4s9.3-6.1,10.5-9.4
		c1.1-3.3,1.7-6.3,1.7-9.1c0,2.1-0.9,4.5-2.7,7.2c-1.8,2.7-5.9,5.3-12.2,7.7c-6.3,2.4-15.4,4.4-27.4,6c-12,1.6-28.1,2.4-48.2,2.4
		h-50.8c-12.8,0-23,0.7-30.5,2.2c-7.5,1.5-13.4,3.3-17.5,5.3c-4.1,2.1-6.9,4.2-8.4,6.3c-1.5,2.2-2.3,3.9-2.6,5.3v-68.6
		c0-5.7,1-11.3,2.9-16.8c1.9-5.5,4.8-10.3,8.6-14.6c3.8-4.2,8.2-7.6,13.4-10.1c5.1-2.5,11-3.8,17.7-3.8c13,0,25.4,1.9,37,5.7
		c11.7,3.8,22.9,7.9,33.8,12.3c10.9,4.5,21.5,8.5,31.9,12.2c10.4,3.7,21,5.5,31.7,5.5c7.5,0,13.5-3,18-9.1
		c4.5-6.1,6.7-14.9,6.7-26.6h6.9v67.2C354.3,223.3,351.1,231.7,344.8,237.5z"/>
</g>
</svg>
