<svg xmlns="http://www.w3.org/2000/svg" id="Layer_1" viewBox="-447 248 64.6 65"><g id="XMLID_13_"><path id="XMLID_17_" d="M-762.5 419.1c3.4-1 6.2-2.8 8.3-4.7 2.4-2.2 3.6-5.8 3.6-10.2 0-2.9-.4-5.6-1.5-7.8-1-2.2-2.7-4.1-5.2-5.6s-5.8-2.7-9.9-3.4c-4.1-.7-9.4-1.2-15.8-1.2s-11.7.4-15.8 1.5c-4.1 1-7.5 2.4-9.9 4-2.5 1.6-4.1 3.6-5.2 5.8-.9 2.2-1.5 4.4-1.5 6.8 0 2.1.4 3.8 1.2 5.5.7 1.6 1.9 3.1 3.1 4.1 1.3 1.2 2.7 2.1 4.3 2.7 1.6.6 3.1.9 4.6.9 1.5 0 2.9-.3 4.6-.9 1.5-.6 2.9-1.5 4.3-2.5 1.3-1.2 2.4-2.5 3.1-4.1.7-1.6 1.2-3.6 1.2-5.6 0-2.2-.3-4.3-1.2-5.9-.7-1.6-1.8-3.1-2.9-4.3-1.2-1.2-2.7-2.1-4.1-2.7-1.6-.6-3.2-.9-5-.9.3 0 .7-.2 1.3-.3.4 0 1.2-.2 1.9-.2h3.1c1.6 0 3.1.3 4.7 1s3.1 1.6 4.4 2.9c1.3 1.2 2.4 2.7 3.2 4.4.7 1.8 1.2 3.6 1.2 5.6 0 2.4-.4 4.4-1.2 6.1-.9 1.6-1.9 2.9-3.2 4.1-1.3 1-2.8 1.9-4.6 2.5-1.8.6-3.8 1-5.3 1.3V419.3c1.5.3 3.6.9 5.3 1.3 1.8.6 3.2 1.3 4.6 2.5 1.3 1 2.5 2.4 3.2 4.1.9 1.6 1.2 3.7 1.2 6.1 0 2.1-.4 4-1.2 5.6-.9 1.8-1.9 3.1-3.2 4.4-1.3 1.2-2.8 2.2-4.4 2.9-1.6.7-3.2 1-4.7 1h-3.1c-.9 0-1.5-.2-1.9-.2-.6 0-1-.2-1.3-.3 1.8 0 3.4-.3 5-.9 1.6-.6 2.9-1.5 4.1-2.7s2.2-2.7 2.9-4.3c.7-1.6 1.2-3.7 1.2-5.9 0-2.1-.4-4-1.2-5.6-.9-1.6-1.9-2.9-3.1-4.1-1.3-1.2-2.7-1.9-4.3-2.5-1.6-.6-3.1-.9-4.6-.9-1.5 0-2.9.3-4.6.9-1.5.6-2.9 1.5-4.3 2.7-1.3 1.2-2.4 2.5-3.1 4.1-.7 1.6-1.2 3.4-1.2 5.5 0 2.4.4 4.6 1.5 6.8.9 2.2 2.7 4.1 5.2 5.8 2.5 1.6 5.8 2.9 9.9 4 4.1 1 9.4 1.5 15.8 1.5s11.7-.3 15.8-1.2c4.1-.7 7.4-1.9 9.9-3.4 2.4-1.5 4.1-3.4 5.2-5.6 1-2.2 1.5-4.9 1.5-7.8 0-4.4-1.2-7.8-3.6-10.1-2-1.2-4.9-2.8-8.3-3.9z" class="st0"/></g></svg>