<svg xmlns="http://www.w3.org/2000/svg" id="Layer_1" viewBox="-278.7 134 64.6 65"><g id="XMLID_15_"><path id="XMLID_16_" d="M-217.1 162.7c-1.9 1.8-5.4 3-10.2 3.7 4 1.1 7.2 2.7 9.6 4.9 2.4 2.2 3.6 5.5 3.6 10 0 3-.5 5.6-1.5 7.8s-2.7 4.1-5.1 5.6c-2.4 1.5-5.7 2.6-9.9 3.3-4.1.7-9.4 1.1-15.7 1.1s-11.6-.5-15.8-1.5-7.5-2.3-9.9-3.9c-2.4-1.6-4.1-3.5-5.1-5.7s-1.4-4.4-1.4-6.7c0-2 .4-3.8 1.2-5.4s1.9-3 3.1-4.2c1.3-1.2 2.7-2 4.2-2.7 1.5-.6 3.1-.9 4.5-.9 1.5 0 3 .3 4.5.8s3 1.4 4.2 2.5c1.3 1.1 2.3 2.5 3.1 4.1s1.2 3.5 1.2 5.6c0 2.3-.4 4.2-1.1 5.9-.7 1.7-1.7 3.1-2.9 4.2-1.2 1.2-2.6 2-4.2 2.6-1.6.6-3.2.8-4.9.8.3.1.7.2 1.3.2.5.1 1.1.1 1.9.2.8 0 1.9.1 3.1.1 1.5 0 3.2-.3 4.8-1.1 1.6-.7 3.1-1.7 4.4-2.9 1.3-1.2 2.4-2.7 3.2-4.4s1.2-3.6 1.2-5.6c0-2.4-.4-4.4-1.3-6.1-.8-1.7-1.9-3-3.3-4.1s-2.9-1.9-4.7-2.4c-1.8-.6-3.6-1-5.5-1.4V165h15.3c7 0 12.4-.3 16.2-.9 3.8-.6 6.6-1.4 8.4-2.3 1.8-.9 2.9-1.9 3.2-2.9.3-1 .5-1.9.5-2.8 0 .6-.3 1.4-.8 2.2-.6.8-1.8 1.6-3.8 2.4-1.9.7-4.8 1.4-8.5 1.9s-8.7.7-14.9.7h-15.7c-4 0-7.1.2-9.4.7-2.3.5-4.1 1-5.4 1.6-1.3.6-2.1 1.3-2.6 1.9-.5.7-.7 1.2-.8 1.6V148c0-1.8.3-3.5.9-5.2.6-1.7 1.5-3.2 2.7-4.5 1.2-1.3 2.5-2.4 4.1-3.1 1.6-.8 3.4-1.2 5.5-1.2 4 0 7.9.6 11.4 1.8 3.6 1.2 7.1 2.4 10.5 3.8 3.4 1.4 6.7 2.6 9.9 3.8s6.5 1.7 9.8 1.7c2.3 0 4.2-.9 5.6-2.8 1.4-1.9 2.1-4.6 2.1-8.2h2.1v20.8c.1 3.4-.9 6-2.9 7.8z" class="st0"/></g></svg>