<svg xmlns="http://www.w3.org/2000/svg" id="Layer_1" viewBox="-278.7 134 64.6 65"><g id="XMLID_18_"><path id="XMLID_19_" d="M-214.1 151.4V199H-263v-2.1h15.7v-10.2h-31.5v-2.1c0-3.3.4-6 1.2-8.1.8-2.1 1.8-4 3-5.7 1.2-1.7 2.4-3.4 3.9-5.1 1.4-1.7 2.7-3.9 3.9-6.5 1.2-2.7 2.2-6 3-9.9.8-4 1.2-9 1.2-15.2h48.4c0 5.7-.9 10.5-2.7 14.6s-4.1 7.4-7.1 10.2c-2.9 2.8-6.2 5-10 6.8-3.7 1.8-7.6 3.3-11.5 4.5-3.9 1.2-7.7 2.3-11.5 3.1-3.7.9-7.1 1.8-10 2.8-2.9 1-5.3 2.1-7.1 3.4-1.8 1.3-2.7 3-2.7 5h29.3v-12.3c1.9-.3 3.9-.8 5.9-1.5 1.8-.6 3.7-1.3 5.9-2.2 2.2-.9 4.3-2.1 6.4-3.5 3.2-1.9 5.9-4 8-6.3 2.1-2.3 3.7-4.7 4.8-7.3h2.4z" class="st0"/></g></svg>