<svg id="Layer_1" xmlns="http://www.w3.org/2000/svg" viewBox="0 0 500 500"><g id="XMLID_18_"><path id="XMLID_19_" class="st0" d="M354.3 201.3V355H196.5v-6.9h50.8v-32.9H145.7v-6.9c0-10.7 1.3-19.5 3.9-26.2 2.6-6.7 5.8-12.9 9.6-18.3 3.8-5.5 7.9-11 12.5-16.5s8.7-12.5 12.5-21.1c3.8-8.6 7-19.3 9.6-32.1 2.6-12.8 3.9-29.2 3.9-49h156.4c0 18.3-2.9 34-8.7 47-5.8 13-13.4 24-22.8 32.9-9.4 8.9-20.1 16.3-32.2 22.1-12.1 5.8-24.5 10.7-37 14.6-12.6 3.9-24.9 7.3-37 10.1-12.1 2.9-22.9 5.9-32.2 9.1-9.4 3.2-17 6.9-22.8 11.1-5.8 4.2-8.7 9.7-8.7 16.3h94.7v-39.8c6.2-.9 12.6-2.5 19.2-4.8 5.7-1.8 12.1-4.2 19-7.2 7-3 13.9-6.7 20.7-11.3 10.3-6.2 18.9-13 25.7-20.4 6.9-7.4 12-15.3 15.4-23.5h6.9z"/></g></svg>