<svg xmlns="http://www.w3.org/2000/svg" id="Layer_1" viewBox="-208.9 233.8 64.8 65"><g id="XMLID_21_"><path id="XMLID_22_" d="M-174.8 262.7c-7.2 0-12.8-.2-17-.7-4.2-.5-7.4-1.1-9.6-1.8s-3.7-1.5-4.3-2.2c-.7-.8-1-1.5-1-2.1v8.5h28.9c4.7 0 9.1.2 13.1.4 4.1.3 7.6 1 10.7 2.1 3 1.1 5.4 2.8 7.2 5 1.7 2.2 2.6 5.2 2.6 9 0 3-.5 5.6-1.5 7.8s-2.7 4.1-5.1 5.6c-2.4 1.5-5.7 2.6-9.9 3.3-4.2.7-9.4 1.1-15.8 1.1s-11.7-.5-15.8-1.5c-4.2-1-7.5-2.3-9.9-3.9-2.4-1.6-4.2-3.5-5.1-5.7-1-2.2-1.4-4.4-1.4-6.8 0-2 .4-3.8 1.2-5.4.8-1.6 1.9-3 3.1-4.2 1.3-1.2 2.7-2 4.2-2.7 1.5-.6 3.1-.9 4.6-.9s3 .3 4.6.8c1.5.6 3 1.4 4.2 2.5 1.3 1.1 2.3 2.5 3.1 4.2.8 1.6 1.2 3.5 1.2 5.6 0 2.3-.4 4.2-1.1 5.9-.7 1.7-1.7 3.1-2.9 4.2-1.2 1.2-2.6 2-4.2 2.6-1.6.6-3.3.8-4.9.8.3.1.7.2 1.3.2.5.1 1.1.1 2 .2s1.9.1 3.1.1c1.5 0 3.2-.3 4.8-1.1 1.6-.7 3.1-1.7 4.4-2.9s2.4-2.7 3.2-4.4c.8-1.7 1.2-3.6 1.2-5.6 0-2.2-.6-4.2-1.6-6-1.1-1.8-2.5-3.3-4.4-4.6-1.8-1.2-3.9-2.2-6.4-2.9-2.4-.7-5-1-7.6-1h-13.2v-32.7h2.1c0 3.6.8 6.4 2.3 8.2 1.5 1.9 3.4 2.8 5.8 2.8 3.3 0 6.5-.6 9.7-1.7 3.2-1.1 6.5-2.4 9.8-3.8 3.3-1.4 6.7-2.7 10.3-3.8 3.6-1.2 7.4-1.8 11.4-1.8 2 0 3.8.4 5.4 1.2 1.6.8 3 1.8 4.2 3.1 1.2 1.3 2 2.8 2.7 4.5s.9 3.4.9 5.2v21.3c-.2-.4-.7-1-1.5-1.7s-2.3-1.4-4.4-2.1c-2.2-.7-5.2-1.3-9.1-1.8-4-.2-9.1-.4-15.6-.4z" class="st0"/></g></svg>