<svg id="Layer_1" xmlns="http://www.w3.org/2000/svg" viewBox="0 0 500 500"><g id="XMLID_21_"><path id="XMLID_22_" class="st0" d="M255.5 238.3c-23.1 0-41.4-.7-54.9-2.2-13.5-1.5-23.8-3.4-31-5.7-7.2-2.3-11.8-4.7-13.9-7.2-2.1-2.5-3.1-4.8-3.1-6.9v27.4h93.3c15.1 0 29.2.5 42.4 1.4 13.1.9 24.6 3.2 34.5 6.9 9.8 3.7 17.5 9 23.2 16.1 5.6 7.1 8.4 16.8 8.4 29.1 0 9.6-1.6 18-4.8 25.2-3.2 7.2-8.7 13.2-16.6 18-7.9 4.8-18.5 8.4-31.9 10.8-13.4 2.4-30.4 3.6-50.9 3.6-20.6 0-37.6-1.6-51.1-4.8-13.5-3.2-24.2-7.4-32.1-12.7-7.9-5.3-13.4-11.4-16.5-18.3-3.1-7-4.6-14.2-4.6-21.8 0-6.4 1.3-12.2 3.9-17.5 2.6-5.3 6-9.8 10.1-13.5 4.1-3.8 8.7-6.6 13.7-8.6 5-1.9 9.9-2.9 14.7-2.9 4.8 0 9.7.9 14.7 2.7 5 1.8 9.6 4.6 13.7 8.2 4.1 3.7 7.5 8.1 10.1 13.4 2.6 5.3 3.9 11.3 3.9 18.2 0 7.3-1.2 13.7-3.6 19-2.4 5.4-5.5 9.9-9.4 13.7-3.9 3.8-8.4 6.6-13.6 8.4-5.1 1.8-10.5 2.7-15.9 2.7.9.2 2.3.5 4.1.7 1.6.2 3.7.4 6.3.5 2.6.1 6 .2 10.1.2 5 0 10.2-1.1 15.4-3.4 5.3-2.3 10-5.4 14.2-9.4 4.2-4 7.7-8.7 10.3-14.2 2.6-5.5 3.9-11.5 3.9-18.2 0-7.1-1.8-13.5-5.3-19.4-3.5-5.8-8.2-10.7-14.1-14.7-5.8-4-12.7-7.1-20.6-9.3-7.9-2.2-16.1-3.3-24.5-3.3h-42.5V145.1h6.9c0 11.7 2.5 20.5 7.4 26.6 4.9 6.1 11.1 9.1 18.7 9.1 10.5 0 21-1.8 31.4-5.5 10.4-3.7 20.9-7.7 31.5-12.2 10.6-4.5 21.7-8.6 33.3-12.3 11.5-3.8 23.8-5.7 36.9-5.7 6.4 0 12.2 1.3 17.5 3.8 5.3 2.5 9.8 5.9 13.5 10.1 3.8 4.2 6.6 9.1 8.6 14.6s2.9 11.1 2.9 16.8V259c-.7-1.4-2.3-3.2-4.8-5.5s-7.3-4.6-14.2-6.9c-7-2.3-16.8-4.2-29.5-5.8-12.6-1.7-29.3-2.5-50.1-2.5z"/></g></svg>