<?xml version="1.0" encoding="utf-8"?>
<!-- Generator: Adobe Illustrator 19.0.0, SVG Export Plug-In . SVG Version: 6.00 Build 0)  -->
<svg version="1.1" id="Layer_1" xmlns="http://www.w3.org/2000/svg" xmlns:xlink="http://www.w3.org/1999/xlink" x="0px" y="0px"
	 viewBox="0 0 500 500" style="enable-background:new 0 0 500 500;" xml:space="preserve">
<style type="text/css">
	.st0{fill:#FFFFFF;}
</style>
<g id="XMLID_21_">
	<path id="XMLID_22_" class="st0" d="M255.5,238.3c-23.1,0-41.4-0.7-54.9-2.2c-13.5-1.5-23.8-3.4-31-5.7c-7.2-2.3-11.8-4.7-13.9-7.2
		c-2.1-2.5-3.1-4.8-3.1-6.9v27.4h93.3c15.1,0,29.2,0.5,42.4,1.4c13.1,0.9,24.6,3.2,34.5,6.9c9.8,3.7,17.5,9,23.2,16.1
		c5.6,7.1,8.4,16.8,8.4,29.1c0,9.6-1.6,18-4.8,25.2c-3.2,7.2-8.7,13.2-16.6,18c-7.9,4.8-18.5,8.4-31.9,10.8
		c-13.4,2.4-30.4,3.6-50.9,3.6c-20.6,0-37.6-1.6-51.1-4.8c-13.5-3.2-24.2-7.4-32.1-12.7c-7.9-5.3-13.4-11.4-16.5-18.3
		c-3.1-7-4.6-14.2-4.6-21.8c0-6.4,1.3-12.2,3.9-17.5c2.6-5.3,6-9.8,10.1-13.5c4.1-3.8,8.7-6.6,13.7-8.6c5-1.9,9.9-2.9,14.7-2.9
		c4.8,0,9.7,0.9,14.7,2.7c5,1.8,9.6,4.6,13.7,8.2c4.1,3.7,7.5,8.1,10.1,13.4c2.6,5.3,3.9,11.3,3.9,18.2c0,7.3-1.2,13.7-3.6,19
		c-2.4,5.4-5.5,9.9-9.4,13.7c-3.9,3.8-8.4,6.6-13.6,8.4c-5.1,1.8-10.5,2.7-15.9,2.7c0.9,0.2,2.3,0.5,4.1,0.7
		c1.6,0.2,3.7,0.4,6.3,0.5c2.6,0.1,6,0.2,10.1,0.2c5,0,10.2-1.1,15.4-3.4c5.3-2.3,10-5.4,14.2-9.4c4.2-4,7.7-8.7,10.3-14.2
		c2.6-5.5,3.9-11.5,3.9-18.2c0-7.1-1.8-13.5-5.3-19.4c-3.5-5.8-8.2-10.7-14.1-14.7c-5.8-4-12.7-7.1-20.6-9.3
		c-7.9-2.2-16.1-3.3-24.5-3.3h-42.5V145.1h6.9c0,11.7,2.5,20.5,7.4,26.6c4.9,6.1,11.1,9.1,18.7,9.1c10.5,0,21-1.8,31.4-5.5
		c10.4-3.7,20.9-7.7,31.5-12.2c10.6-4.5,21.7-8.6,33.3-12.3c11.5-3.8,23.8-5.7,36.9-5.7c6.4,0,12.2,1.3,17.5,3.8
		c5.3,2.5,9.8,5.9,13.5,10.1c3.8,4.2,6.6,9.1,8.6,14.6s2.9,11.1,2.9,16.8v68.6c-0.7-1.4-2.3-3.2-4.8-5.5c-2.5-2.3-7.3-4.6-14.2-6.9
		c-7-2.3-16.8-4.2-29.5-5.8C293,239.1,276.3,238.3,255.5,238.3z"/>
</g>
</svg>
