<?xml version="1.0" encoding="utf-8"?>
<!-- Generator: Adobe Illustrator 19.0.0, SVG Export Plug-In . SVG Version: 6.00 Build 0)  -->
<svg version="1.1" id="Layer_1" xmlns="http://www.w3.org/2000/svg" xmlns:xlink="http://www.w3.org/1999/xlink" x="0px" y="0px"
	 viewBox="0 0 500 500" style="enable-background:new 0 0 500 500;" xml:space="preserve">
<style type="text/css">
	.st0{fill:#FFFFFF;}
</style>
<g id="XMLID_24_">
	<path id="XMLID_25_" class="st0" d="M282.9,228.7c8.5,0,17,1,25.6,3.1c8.6,2.1,16.2,5.3,23,9.8c6.7,4.5,12.2,10.2,16.5,17.3
		c4.2,7.1,6.3,15.8,6.3,26.1c0,11-1.6,20.8-4.8,29.5c-3.2,8.7-8.7,16-16.6,21.9c-7.9,5.9-18.5,10.5-31.9,13.7
		c-13.4,3.2-30.4,4.8-50.9,4.8c-19.2,0-35.4-2-48.7-6c-13.3-4-24-10.3-32.2-18.9c-8.2-8.6-14.2-19.5-17.8-32.9
		c-3.7-13.4-5.5-29.3-5.5-47.8c0-32.2,8.6-57.7,25.9-76.3c17.3-18.6,43.4-27.9,78.4-27.9c17.4,0,32.2,1.1,44.6,3.3
		c12.3,2.2,22.5,5.4,30.3,9.6c7.9,4.2,13.6,9.4,17.1,15.6c3.5,6.2,5.3,13.2,5.3,20.9c0,4.6-1,8.9-2.9,13c-1.9,4.1-4.5,7.7-7.7,10.8
		c-3.2,3.1-7,5.6-11.3,7.5c-4.3,1.9-8.9,2.9-13.7,2.9c-4.6,0-8.9-1-13-2.9c-4.1-1.9-7.7-4.5-10.8-7.5c-3.1-3.1-5.6-6.7-7.5-10.8
		c-1.9-4.1-2.9-8.5-2.9-13c0-8.2,2.4-15.5,7.2-21.8c4.8-6.3,12-10.5,21.6-12.5h-9.6c-33.8,0-50.8,24.2-50.8,72.7
		c1.6-0.7,4.1-1.4,7.5-2.1c2.7-0.5,6.5-0.9,11.3-1.4C269.6,229,275.6,228.7,282.9,228.7z M252.7,241.1h-6.9v107h6.9V241.1z"/>
</g>
</svg>
