<svg xmlns="http://www.w3.org/2000/svg" id="Layer_1" viewBox="-70 132 350 350"><g id="XMLID_24_"><path id="XMLID_25_" d="M137.9 285.7c8.5 0 17 1 25.6 3.1 8.6 2.1 16.2 5.3 23 9.8 6.7 4.5 12.2 10.2 16.5 17.3 4.2 7.1 6.3 15.8 6.3 26.1 0 11-1.6 20.8-4.8 29.5-3.2 8.7-8.7 16-16.6 21.9s-18.5 10.5-31.9 13.7-30.4 4.8-50.9 4.8c-19.2 0-35.4-2-48.7-6s-24-10.3-32.2-18.9S10 367.5 6.4 354.1C2.7 340.7.9 324.8.9 306.3c0-32.2 8.6-57.7 25.9-76.3s43.4-27.9 78.4-27.9c17.4 0 32.2 1.1 44.6 3.3 12.3 2.2 22.5 5.4 30.3 9.6 7.9 4.2 13.6 9.4 17.1 15.6 3.5 6.2 5.3 13.2 5.3 20.9 0 4.6-1 8.9-2.9 13s-4.5 7.7-7.7 10.8-7 5.6-11.3 7.5-8.9 2.9-13.7 2.9c-4.6 0-8.9-1-13-2.9s-7.7-4.5-10.8-7.5c-3.1-3.1-5.6-6.7-7.5-10.8-1.9-4.1-2.9-8.5-2.9-13 0-8.2 2.4-15.5 7.2-21.8 4.8-6.3 12-10.5 21.6-12.5h-9.6c-33.8 0-50.8 24.2-50.8 72.7 1.6-.7 4.1-1.4 7.5-2.1 2.7-.5 6.5-.9 11.3-1.4 4.7-.4 10.7-.7 18-.7zm-30.2 12.4h-6.9v107h6.9v-107z" class="st0"/></g></svg>