<svg xmlns="http://www.w3.org/2000/svg" id="Layer_1" viewBox="-208.9 233.8 64.8 65"><g id="XMLID_24_"><path id="XMLID_25_" d="M-166.3 259.7c2.6 0 5.3.3 7.9 1s5 1.6 7.1 3c2.1 1.4 3.8 3.2 5.1 5.4 1.3 2.2 2 4.9 2 8.1 0 3.4-.5 6.4-1.5 9.1-1 2.7-2.7 5-5.1 6.8-2.4 1.8-5.7 3.3-9.9 4.2-4.2 1-9.4 1.5-15.8 1.5-5.9 0-11-.6-15.1-1.9-4.1-1.2-7.4-3.2-10-5.9-2.5-2.7-4.4-6-5.5-10.2-1.1-4.2-1.7-9.1-1.7-14.8 0-10 2.7-17.9 8-23.6 5.4-5.8 13.4-8.6 24.3-8.6 5.4 0 10 .3 13.8 1 3.8.7 7 1.7 9.4 3 2.4 1.3 4.2 2.9 5.3 4.8 1.1 1.9 1.6 4.1 1.6 6.5 0 1.4-.3 2.8-.9 4-.6 1.3-1.4 2.4-2.4 3.3-1 1-2.2 1.7-3.5 2.3-1.3.6-2.8.9-4.2.9-1.4 0-2.8-.3-4-.9-1.3-.6-2.4-1.4-3.3-2.3-1-1-1.7-2.1-2.3-3.3-.6-1.3-.9-2.6-.9-4 0-2.5.7-4.8 2.2-6.8 1.5-2 3.7-3.3 6.7-3.9h-3c-10.5 0-15.7 7.5-15.7 22.5.5-.2 1.3-.4 2.3-.7.8-.2 2-.3 3.5-.4 1.4 0 3.3-.1 5.6-.1zm-9.4 3.8h-2.1v33.2h2.1v-33.2z" class="st0"/></g></svg>