<svg xmlns="http://www.w3.org/2000/svg" id="Layer_1" viewBox="-70 132 350 350"><g id="XMLID_28_"><path id="XMLID_29_" d="M209.9 202.1v63.1c0 10.8-1.1 19.1-3.4 25s-5.1 11-8.6 15.3c-3.4 4.2-7.2 8.4-11.3 12.5-4.1 4.1-7.9 9.8-11.3 17.1-3.4 7.3-6.3 17-8.6 29s-3.4 27.9-3.4 47.8H30.2c0-18.3 2.5-33.5 7.4-45.8 4.9-12.2 11.3-22.3 19.2-30.2 7.9-7.9 17-13.9 27.3-18.2 10.3-4.2 20.8-7.5 31.4-9.9s21.1-4.3 31.4-5.7c10.3-1.4 19.4-3.1 27.4-5.1 8-2.1 14.5-4.9 19.5-8.4s7.7-8.6 7.9-15.3c0 2.5-1 5.1-3.1 7.7-2.1 2.6-6.7 5.1-13.9 7.5-7.2 2.4-17.6 4.3-31.2 5.8s-31.8 2.2-54.7 2.2c-21 0-37.8.7-50.4 2.2S26.1 302 19.2 304c-6.9 2.1-11.5 4.2-13.9 6.3-2.4 2.2-3.7 3.9-3.9 5.3H0V247c0-5.7 1-11.3 2.9-16.8s4.8-10.3 8.6-14.6c3.8-4.2 8.4-7.6 13.9-10.1s11.7-3.8 18.5-3.8c12.6 0 24.7 1.9 36.4 5.7 11.7 3.8 22.9 7.9 33.8 12.4s21.5 8.5 31.9 12.2 20.7 5.5 31 5.5c7.5 0 13.5-3 18-9.1s6.7-14.9 6.7-26.6h8.2v.3z" class="st0"/></g></svg>