<svg xmlns="http://www.w3.org/2000/svg" id="Layer_1" viewBox="-208.9 233.8 64.8 65"><g id="XMLID_28_"><path id="XMLID_29_" d="M-144 233.9v19.5c0 3.3-.3 5.9-1.1 7.7-.7 1.8-1.6 3.4-2.7 4.7-1.1 1.3-2.2 2.6-3.5 3.9-1.3 1.3-2.4 3-3.5 5.3s-1.9 5.3-2.7 9c-.7 3.7-1.1 8.6-1.1 14.8h-41.2c0-5.7.8-10.4 2.3-14.2 1.5-3.8 3.5-6.9 5.9-9.3 2.4-2.4 5.3-4.3 8.4-5.6 3.2-1.3 6.4-2.3 9.7-3.1s6.5-1.3 9.7-1.8 6-1 8.5-1.6c2.5-.6 4.5-1.5 6-2.6s2.4-2.7 2.4-4.7c0 .8-.3 1.6-1 2.4-.6.8-2.1 1.6-4.3 2.3-2.2.7-5.4 1.3-9.6 1.8-4.2.5-9.8.7-16.9.7-6.5 0-11.7.2-15.6.7-3.9.5-6.9 1-9 1.6-2.1.6-3.6 1.3-4.3 1.9-.7.7-1.1 1.2-1.2 1.6h-.4v-21.2c0-1.8.3-3.5.9-5.2.6-1.7 1.5-3.2 2.7-4.5 1.2-1.3 2.6-2.4 4.3-3.1 1.7-.8 3.6-1.2 5.7-1.2 3.9 0 7.6.6 11.3 1.8 3.6 1.2 7.1 2.4 10.5 3.8 3.4 1.4 6.6 2.6 9.9 3.8s6.4 1.7 9.6 1.7c2.3 0 4.2-.9 5.6-2.8 1.4-1.9 2.1-4.6 2.1-8.2l2.6.1z" class="st0"/></g></svg>