<svg xmlns="http://www.w3.org/2000/svg" id="Layer_1" viewBox="-70 132 350 350"><g id="XMLID_32_"><path id="XMLID_33_" d="M171.5 299.5c11.7 4.8 21 11.8 28 21.1s10.5 18.7 10.5 28.3c0 8.7-1.4 16.8-4.1 24.3s-7.9 14.2-15.6 20.1c-7.7 5.8-18.3 10.4-31.9 13.7-13.6 3.3-31.2 5-52.6 5-21.9 0-39.8-1.7-53.5-5s-24.5-7.9-32.2-13.7c-7.8-5.8-13-12.5-15.8-20.1-2.7-7.5-4.1-15.7-4.1-24.3 0-4.8.9-9.7 2.7-14.6s4.5-9.6 7.9-14.1 7.6-8.5 12.5-12.2c4.9-3.7 10.5-6.5 16.6-8.6-8.9-3.4-15.9-9.1-21.1-17-5.1-7.9-7.7-15.9-7.7-24.2 0-7.8 1.6-15.1 4.8-22s8.5-12.9 15.8-18 17-9.1 29.1-12 27.1-4.3 44.9-4.3 32.8 1.4 44.9 4.3c12.1 2.9 21.8 6.9 29.2 12 7.3 5.1 12.6 11.1 15.8 18 3.2 6.9 4.8 14.2 4.8 22 0 8.2-2.6 16.3-7.7 24.2-5.2 8-12.3 13.6-21.2 17.1zm-63.1-90.6h-6.9v79.6h6.9v-79.6zm0 96h-6.9V405h6.9V304.9z" class="st0"/></g></svg>