<svg xmlns="http://www.w3.org/2000/svg" id="Layer_1" viewBox="-208.9 233.8 64.8 65"><g id="XMLID_32_"><path id="XMLID_33_" d="M-156 264c3.6 1.5 6.5 3.7 8.7 6.5 2.2 2.9 3.2 5.8 3.2 8.8 0 2.7-.4 5.2-1.3 7.5-.8 2.3-2.4 4.4-4.8 6.2-2.4 1.8-5.7 3.2-9.9 4.2s-9.7 1.5-16.3 1.5c-6.8 0-12.3-.5-16.6-1.5-4.2-1-7.6-2.4-10-4.2-2.4-1.8-4-3.9-4.9-6.2-.8-2.3-1.3-4.9-1.3-7.5 0-1.5.3-3 .8-4.5.6-1.5 1.4-3 2.4-4.4 1.1-1.4 2.4-2.6 3.9-3.8 1.5-1.1 3.2-2 5.1-2.7-2.8-1.1-4.9-2.8-6.5-5.3-1.6-2.4-2.4-4.9-2.4-7.5 0-2.4.5-4.7 1.5-6.8 1-2.1 2.6-4 4.9-5.6 2.3-1.6 5.3-2.8 9-3.7s8.4-1.3 13.9-1.3 10.1.4 13.9 1.3c3.7.9 6.7 2.1 9 3.7s3.9 3.4 4.9 5.6c1 2.1 1.5 4.4 1.5 6.8 0 2.5-.8 5-2.4 7.5-1.3 2.6-3.5 4.3-6.3 5.4zm-19.5-28h-2.1v24.6h2.1V236zm0 29.7h-2.1v31h2.1v-31z" class="st0"/></g></svg>