<?xml version="1.0" encoding="utf-8"?>
<!-- Generator: Adobe Illustrator 19.0.0, SVG Export Plug-In . SVG Version: 6.00 Build 0)  -->
<svg version="1.1" id="Layer_1" xmlns="http://www.w3.org/2000/svg" xmlns:xlink="http://www.w3.org/1999/xlink" x="0px" y="0px"
	 viewBox="0 0 500 500" style="enable-background:new 0 0 500 500;" xml:space="preserve">
<style type="text/css">
	.st0{fill:#FFFFFF;}
</style>
<g id="XMLID_32_">
	<path id="XMLID_33_" class="st0" d="M316.5,242.5c11.7,4.8,21,11.8,28,21.1c7,9.3,10.5,18.7,10.5,28.3c0,8.7-1.4,16.8-4.1,24.3
		c-2.7,7.5-7.9,14.2-15.6,20.1c-7.7,5.8-18.3,10.4-31.9,13.7c-13.6,3.3-31.2,5-52.6,5c-21.9,0-39.8-1.7-53.5-5
		c-13.7-3.3-24.5-7.9-32.2-13.7c-7.8-5.8-13-12.5-15.8-20.1c-2.7-7.5-4.1-15.7-4.1-24.3c0-4.8,0.9-9.7,2.7-14.6
		c1.8-4.9,4.5-9.6,7.9-14.1c3.4-4.5,7.6-8.5,12.5-12.2c4.9-3.7,10.5-6.5,16.6-8.6c-8.9-3.4-15.9-9.1-21.1-17
		c-5.1-7.9-7.7-15.9-7.7-24.2c0-7.8,1.6-15.1,4.8-22c3.2-6.9,8.5-12.9,15.8-18c7.3-5.1,17-9.1,29.1-12c12.1-2.9,27.1-4.3,44.9-4.3
		s32.8,1.4,44.9,4.3c12.1,2.9,21.8,6.9,29.2,12c7.3,5.1,12.6,11.1,15.8,18c3.2,6.9,4.8,14.2,4.8,22c0,8.2-2.6,16.3-7.7,24.2
		C332.5,233.4,325.4,239,316.5,242.5z M253.4,151.9h-6.9v79.6h6.9V151.9z M253.4,247.9h-6.9v100.1h6.9V247.9z"/>
</g>
</svg>
