<svg xmlns="http://www.w3.org/2000/svg" id="Layer_1" viewBox="-70 132 350 350"><g id="XMLID_41_"><path id="XMLID_42_" d="M72.8 328.3c-8.9 0-17.7-1-26.4-2.9s-16.5-5.1-23.3-9.6c-6.9-4.5-12.4-10.3-16.6-17.5-4.2-7.2-6.3-15.9-6.3-26.2 0-11 1.6-20.8 4.8-29.5s8.7-16 16.6-21.9c7.9-5.9 18.6-10.5 32.2-13.7 13.6-3.2 30.9-4.8 52-4.8 18.7 0 34.7 2 48 6s24.1 10.3 32.4 18.9c8.3 8.6 14.4 19.4 18.2 32.6 3.8 13.1 5.7 28.8 5.7 46.8 0 32.9-8.8 58.8-26.4 77.5s-43.6 28.1-77.8 28.1c-35 0-60.2-4.5-75.6-13.4s-23.2-20.9-23.2-36c0-4.8 1-9.3 2.9-13.4s4.5-7.7 7.7-10.8c3.2-3.1 7-5.5 11.3-7.4 4.3-1.8 8.9-2.7 13.7-2.7s9.4.9 13.7 2.7c4.3 1.8 8.1 4.3 11.3 7.4s5.8 6.7 7.7 10.8c1.9 4.1 2.9 8.6 2.9 13.4 0 8.2-2.6 15.5-7.9 21.8-5.3 6.3-12.7 10.5-22.3 12.5h9.6c17.8 0 30.7-6.1 38.8-18.3 8-12.2 12-30.8 12-55.7-1.8.9-4.3 1.8-7.5 2.7-2.7.7-6.4 1.3-11 1.9-4.7.4-10.4.7-17.2.7zm28.8-12.4h6.9v-107h-6.9v107z" class="st0"/></g></svg>