<svg xmlns="http://www.w3.org/2000/svg" id="Layer_1" viewBox="-208.9 233.8 64.8 65"><g id="XMLID_41_"><path id="XMLID_42_" d="M-186.5 272.8c-2.8 0-5.5-.3-8.2-.9-2.7-.6-5.1-1.6-7.2-3-2.1-1.4-3.8-3.2-5.1-5.4-1.3-2.2-2-4.9-2-8.1 0-3.4.5-6.4 1.5-9.1 1-2.7 2.7-5 5.1-6.8 2.4-1.8 5.8-3.3 10-4.2 4.2-1 9.6-1.5 16.1-1.5 5.8 0 10.7.6 14.9 1.9 4.1 1.2 7.5 3.2 10 5.9 2.6 2.7 4.5 6 5.6 10.1 1.2 4.1 1.8 8.9 1.8 14.5 0 10.2-2.7 18.2-8.2 24-5.5 5.8-13.5 8.7-24.1 8.7-10.8 0-18.6-1.4-23.4-4.1s-7.2-6.5-7.2-11.1c0-1.5.3-2.9.9-4.1s1.4-2.4 2.4-3.3c1-1 2.2-1.7 3.5-2.3 1.3-.6 2.8-.8 4.2-.8s2.9.3 4.2.8 2.5 1.3 3.5 2.3c1 1 1.8 2.1 2.4 3.3s.9 2.7.9 4.1c0 2.5-.8 4.8-2.4 6.8s-3.9 3.3-6.9 3.9h3c5.5 0 9.5-1.9 12-5.7 2.5-3.8 3.7-9.5 3.7-17.2-.6.3-1.3.6-2.3.8-.8.2-2 .4-3.4.6-1.4-.1-3.2-.1-5.3-.1zm8.9-3.8h2.1v-33.1h-2.1V269z" class="st0"/></g></svg>