<?xml version="1.0" encoding="utf-8"?>
<!-- Generator: Adobe Illustrator 19.0.0, SVG Export Plug-In . SVG Version: 6.00 Build 0)  -->
<svg version="1.1" id="Layer_1" xmlns="http://www.w3.org/2000/svg" xmlns:xlink="http://www.w3.org/1999/xlink" x="0px" y="0px"
	 viewBox="0 0 500 500" style="enable-background:new 0 0 500 500;" xml:space="preserve">
<style type="text/css">
	.st0{fill:#FFFFFF;}
</style>
<g id="XMLID_41_">
	<path id="XMLID_42_" class="st0" d="M217.8,271.3c-8.9,0-17.7-1-26.4-2.9c-8.7-1.9-16.5-5.1-23.3-9.6c-6.9-4.5-12.4-10.3-16.6-17.5
		c-4.2-7.2-6.3-15.9-6.3-26.2c0-11,1.6-20.8,4.8-29.5c3.2-8.7,8.7-16,16.6-21.9c7.9-5.9,18.6-10.5,32.2-13.7
		c13.6-3.2,30.9-4.8,52-4.8c18.7,0,34.7,2,48,6c13.3,4,24.1,10.3,32.4,18.9c8.3,8.6,14.4,19.4,18.2,32.6c3.8,13.1,5.7,28.8,5.7,46.8
		c0,32.9-8.8,58.8-26.4,77.5c-17.6,18.7-43.6,28.1-77.8,28.1c-35,0-60.2-4.5-75.6-13.4c-15.4-8.9-23.2-20.9-23.2-36
		c0-4.8,1-9.3,2.9-13.4c1.9-4.1,4.5-7.7,7.7-10.8c3.2-3.1,7-5.5,11.3-7.4c4.3-1.8,8.9-2.7,13.7-2.7c4.8,0,9.4,0.9,13.7,2.7
		c4.3,1.8,8.1,4.3,11.3,7.4c3.2,3.1,5.8,6.7,7.7,10.8c1.9,4.1,2.9,8.6,2.9,13.4c0,8.2-2.6,15.5-7.9,21.8
		c-5.3,6.3-12.7,10.5-22.3,12.5h9.6c17.8,0,30.7-6.1,38.8-18.3c8-12.2,12-30.8,12-55.7c-1.8,0.9-4.3,1.8-7.5,2.7
		c-2.7,0.7-6.4,1.3-11,1.9C230.3,271,224.6,271.3,217.8,271.3z M246.6,258.9h6.9v-107h-6.9V258.9z"/>
</g>
</svg>
